<svg width="1920" height="1080" viewBox="0 0 1920 1080" fill="none" xmlns="http://www.w3.org/2000/svg">
<rect width="1920" height="1080" fill="white"/>
<path d="M52.284 263H54.948V251.894H58.71V249.68H48.522V251.894H52.284V263ZM60.672 263H63.318V252.938H60.672V263ZM61.986 251.3C62.904 251.3 63.534 250.724 63.534 249.842C63.534 248.978 62.904 248.42 61.986 248.42C61.068 248.42 60.456 248.978 60.456 249.842C60.456 250.724 61.068 251.3 61.986 251.3ZM69.8108 263.252C70.7108 263.252 71.4128 263.054 71.9528 262.874L71.5208 260.948C71.2328 261.056 70.8548 261.182 70.5128 261.182C69.6308 261.182 69.1448 260.642 69.1448 259.49V255.008H71.6468V252.938H69.1448V250.202H66.9488L66.6608 252.938L65.0948 253.046V255.008H66.4988V259.49C66.4988 261.74 67.4168 263.252 69.8108 263.252ZM76.199 263.252C76.829 263.252 77.243 263.144 77.549 263.036L77.225 261.074C77.045 261.11 76.973 261.11 76.883 261.11C76.631 261.11 76.361 260.912 76.361 260.282V248.654H73.715V260.174C73.715 262.046 74.345 263.252 76.199 263.252ZM83.7847 263.252C85.0267 263.252 86.2867 262.838 87.2767 262.154L86.3947 260.516C85.6567 260.966 84.9367 261.218 84.1267 261.218C82.6327 261.218 81.5527 260.372 81.3187 258.716H87.5467C87.6007 258.464 87.6547 257.996 87.6547 257.492C87.6547 254.702 86.2327 252.686 83.4427 252.686C81.0667 252.686 78.7627 254.702 78.7627 257.978C78.7627 261.308 80.9587 263.252 83.7847 263.252ZM81.2827 256.952C81.4987 255.476 82.4347 254.72 83.4967 254.72C84.7927 254.72 85.4047 255.584 85.4047 256.952H81.2827ZM93.3437 263.252C95.8997 263.252 98.0417 261.884 98.0417 259.49C98.0417 257.798 96.8897 256.7 95.3777 256.286V256.214C96.7817 255.638 97.5917 254.666 97.5917 253.262C97.5917 251.048 95.8457 249.788 93.2717 249.788C91.7237 249.788 90.4457 250.436 89.2937 251.426L90.6437 253.064C91.4357 252.326 92.2097 251.858 93.1637 251.858C94.2977 251.858 94.9457 252.452 94.9457 253.46C94.9457 254.576 94.1537 255.386 91.7057 255.386V257.294C94.6037 257.294 95.3777 258.086 95.3777 259.328C95.3777 260.462 94.4597 261.11 93.0917 261.11C91.8857 261.11 90.9317 260.498 90.1397 259.724L88.8797 261.398C89.8157 262.478 91.2377 263.252 93.3437 263.252Z" fill="black"/>
<path d="M49.92 307H54.86C58.12 307 60.48 305.6 60.48 302.68C60.48 300.7 59.28 299.54 57.6 299.18V299.1C58.92 298.64 59.68 297.32 59.68 295.9C59.68 293.24 57.5 292.28 54.5 292.28H49.92V307ZM52.26 298.42V294.1H54.3C56.36 294.1 57.4 294.68 57.4 296.22C57.4 297.58 56.48 298.42 54.24 298.42H52.26ZM52.26 305.18V300.18H54.6C56.94 300.18 58.2 300.92 58.2 302.58C58.2 304.36 56.88 305.18 54.6 305.18H52.26ZM67.4798 307.28C70.1998 307.28 72.6598 305.16 72.6598 301.52C72.6598 297.84 70.1998 295.72 67.4798 295.72C64.7398 295.72 62.2998 297.84 62.2998 301.52C62.2998 305.16 64.7398 307.28 67.4798 307.28ZM67.4798 305.38C65.7398 305.38 64.6798 303.84 64.6798 301.52C64.6798 299.18 65.7398 297.64 67.4798 297.64C69.1998 297.64 70.2998 299.18 70.2998 301.52C70.2998 303.84 69.1998 305.38 67.4798 305.38ZM79.1645 307.28C80.4045 307.28 81.5445 306.62 82.3845 305.78H82.4445L82.6245 307H84.5245V291.08H82.2045V295.14L82.3045 296.96C81.4245 296.2 80.6045 295.72 79.3445 295.72C76.9045 295.72 74.6445 297.94 74.6445 301.52C74.6445 305.16 76.4045 307.28 79.1645 307.28ZM79.7245 305.36C78.0045 305.36 77.0245 303.98 77.0245 301.48C77.0245 299.12 78.2645 297.64 79.8045 297.64C80.6245 297.64 81.4045 297.92 82.2045 298.66V304.02C81.4245 304.94 80.6245 305.36 79.7245 305.36ZM88.4822 311.6C90.8022 311.6 91.9622 310.02 92.8222 307.68L96.8622 296H94.6222L92.8422 301.66C92.5622 302.68 92.2622 303.76 92.0022 304.78H91.9022C91.5422 303.74 91.2222 302.64 90.8822 301.66L88.8622 296H86.5022L90.8622 306.92L90.6422 307.68C90.2422 308.86 89.5222 309.74 88.3422 309.74C88.0622 309.74 87.7422 309.66 87.5422 309.58L87.1022 311.38C87.4822 311.52 87.9222 311.6 88.4822 311.6ZM98.8211 307H107.241V305.1H104.361V292.68H102.621C101.761 293.2 100.801 293.56 99.4011 293.82V295.28H102.061V305.1H98.8211V307Z" fill="black"/>
<path d="M49.344 345H52.802C55.084 345 56.736 344.02 56.736 341.976C56.736 340.59 55.896 339.778 54.72 339.526V339.47C55.644 339.148 56.176 338.224 56.176 337.23C56.176 335.368 54.65 334.696 52.55 334.696H49.344V345ZM50.982 338.994V335.97H52.41C53.852 335.97 54.58 336.376 54.58 337.454C54.58 338.406 53.936 338.994 52.368 338.994H50.982ZM50.982 343.726V340.226H52.62C54.258 340.226 55.14 340.744 55.14 341.906C55.14 343.152 54.216 343.726 52.62 343.726H50.982ZM61.6359 345.196C63.5399 345.196 65.2619 343.712 65.2619 341.164C65.2619 338.588 63.5399 337.104 61.6359 337.104C59.7179 337.104 58.0099 338.588 58.0099 341.164C58.0099 343.712 59.7179 345.196 61.6359 345.196ZM61.6359 343.866C60.4179 343.866 59.6759 342.788 59.6759 341.164C59.6759 339.526 60.4179 338.448 61.6359 338.448C62.8399 338.448 63.6099 339.526 63.6099 341.164C63.6099 342.788 62.8399 343.866 61.6359 343.866ZM69.8152 345.196C70.6832 345.196 71.4812 344.734 72.0692 344.146H72.1112L72.2372 345H73.5672V333.856H71.9432V336.698L72.0132 337.972C71.3972 337.44 70.8232 337.104 69.9412 337.104C68.2332 337.104 66.6512 338.658 66.6512 341.164C66.6512 343.712 67.8832 345.196 69.8152 345.196ZM70.2072 343.852C69.0032 343.852 68.3172 342.886 68.3172 341.136C68.3172 339.484 69.1852 338.448 70.2632 338.448C70.8372 338.448 71.3832 338.644 71.9432 339.162V342.914C71.3972 343.558 70.8372 343.852 70.2072 343.852ZM76.3375 348.22C77.9615 348.22 78.7735 347.114 79.3755 345.476L82.2035 337.3H80.6355L79.3895 341.262C79.1935 341.976 78.9835 342.732 78.8015 343.446H78.7315C78.4795 342.718 78.2555 341.948 78.0175 341.262L76.6035 337.3H74.9515L78.0035 344.944L77.8495 345.476C77.5695 346.302 77.0655 346.918 76.2395 346.918C76.0435 346.918 75.8195 346.862 75.6795 346.806L75.3715 348.066C75.6375 348.164 75.9455 348.22 76.3375 348.22ZM82.9868 345H89.6508V343.628H87.0328C86.5148 343.628 85.8708 343.684 85.3388 343.74C87.4808 341.486 89.1608 339.638 89.1608 337.818C89.1608 335.984 87.9428 334.794 86.0528 334.794C84.7088 334.794 83.7988 335.368 82.9028 336.32L83.8268 337.216C84.3728 336.6 85.0448 336.082 85.8568 336.082C87.0048 336.082 87.5928 336.796 87.5928 337.888C87.5928 339.47 85.8568 341.248 82.9868 344.062V345Z" fill="black"/>
<path d="M52.96 407.224C53.984 407.224 55.024 406.84 55.824 406.136L55.072 404.904C54.544 405.352 53.888 405.704 53.152 405.704C51.68 405.704 50.672 404.472 50.672 402.616C50.672 400.744 51.712 399.512 53.216 399.512C53.808 399.512 54.304 399.768 54.784 400.184L55.68 399C55.056 398.424 54.24 397.976 53.12 397.976C50.8 397.976 48.768 399.672 48.768 402.616C48.768 405.528 50.592 407.224 52.96 407.224ZM59.4716 407.224C60.5276 407.224 61.4716 406.696 62.2716 406.008H62.3356L62.4796 407H63.9996V401.72C63.9996 399.368 62.9916 397.976 60.7996 397.976C59.3916 397.976 58.1436 398.568 57.2476 399.128L57.9356 400.392C58.6716 399.912 59.5516 399.48 60.4796 399.48C61.7596 399.48 62.1276 400.376 62.1436 401.4C58.4956 401.8 56.8956 402.776 56.8956 404.664C56.8956 406.216 57.9676 407.224 59.4716 407.224ZM60.0476 405.752C59.2636 405.752 58.6716 405.4 58.6716 404.536C58.6716 403.544 59.5356 402.888 62.1436 402.584V404.728C61.4236 405.4 60.8156 405.752 60.0476 405.752ZM66.5948 410.568H68.4508V407.72L68.3868 406.232C69.1228 406.872 69.9227 407.224 70.7068 407.224C72.6908 407.224 74.4988 405.48 74.4988 402.472C74.4988 399.752 73.2348 397.976 71.0108 397.976C70.0188 397.976 69.0748 398.52 68.3068 399.176H68.2588L68.0988 398.2H66.5948V410.568ZM70.3548 405.688C69.8108 405.688 69.1388 405.48 68.4508 404.888V400.584C69.1868 399.88 69.8428 399.512 70.5148 399.512C71.9868 399.512 72.5948 400.648 72.5948 402.488C72.5948 404.552 71.6188 405.688 70.3548 405.688ZM79.211 407.224C79.867 407.224 80.459 407.048 80.955 406.888L80.619 405.528C80.347 405.64 79.979 405.752 79.675 405.752C78.763 405.752 78.379 405.192 78.379 404.152V399.672H80.683V398.2H78.379V395.768H76.843L76.635 398.2L75.259 398.296V399.672H76.539V404.136C76.539 405.976 77.243 407.224 79.211 407.224ZM82.5948 407H84.4508V398.2H82.5948V407ZM83.5228 396.552C84.1948 396.552 84.6748 396.12 84.6748 395.448C84.6748 394.792 84.1948 394.36 83.5228 394.36C82.8348 394.36 82.3868 394.792 82.3868 395.448C82.3868 396.12 82.8348 396.552 83.5228 396.552ZM90.7401 407.224C92.9161 407.224 94.8841 405.528 94.8841 402.616C94.8841 399.672 92.9161 397.976 90.7401 397.976C88.5481 397.976 86.5961 399.672 86.5961 402.616C86.5961 405.528 88.5481 407.224 90.7401 407.224ZM90.7401 405.704C89.3481 405.704 88.5001 404.472 88.5001 402.616C88.5001 400.744 89.3481 399.512 90.7401 399.512C92.1161 399.512 92.9961 400.744 92.9961 402.616C92.9961 404.472 92.1161 405.704 90.7401 405.704ZM97.0479 407H98.9039V400.76C99.6719 399.992 100.232 399.576 101.048 399.576C102.072 399.576 102.52 400.168 102.52 401.704V407H104.376V401.464C104.376 399.24 103.544 397.976 101.672 397.976C100.472 397.976 99.5599 398.632 98.7599 399.432H98.7119L98.5519 398.2H97.0479V407Z" fill="black"/>
<path d="M50.36 441.14C51.71 441.14 52.44 440.39 52.44 439.46C52.44 438.43 51.6 438.08 50.83 437.79C50.22 437.57 49.69 437.39 49.69 436.92C49.69 436.54 49.97 436.24 50.58 436.24C51.03 436.24 51.42 436.45 51.8 436.72L52.34 436.01C51.9 435.66 51.29 435.36 50.56 435.36C49.33 435.36 48.59 436.05 48.59 436.97C48.59 437.91 49.4 438.3 50.14 438.58C50.73 438.8 51.35 439.03 51.35 439.52C51.35 439.94 51.04 440.26 50.39 440.26C49.79 440.26 49.32 440.01 48.83 439.63L48.29 440.38C48.82 440.82 49.6 441.14 50.36 441.14ZM53.6647 441H54.8247V437.1C55.2647 436.6 55.6847 436.36 56.0547 436.36C56.6847 436.36 56.9747 436.73 56.9747 437.69V441H58.1247V437.1C58.5847 436.6 58.9847 436.36 59.3647 436.36C59.9847 436.36 60.2747 436.73 60.2747 437.69V441H61.4247V437.54C61.4247 436.15 60.8947 435.36 59.7447 435.36C59.0547 435.36 58.4947 435.8 57.9447 436.37C57.7147 435.74 57.2547 435.36 56.4347 435.36C55.7547 435.36 55.2047 435.77 54.7347 436.27H54.7047L54.6047 435.5H53.6647V441ZM64.3983 441.14C65.0583 441.14 65.6483 440.81 66.1483 440.38H66.1883L66.2783 441H67.2283V437.7C67.2283 436.23 66.5983 435.36 65.2283 435.36C64.3483 435.36 63.5683 435.73 63.0083 436.08L63.4383 436.87C63.8983 436.57 64.4483 436.3 65.0283 436.3C65.8283 436.3 66.0583 436.86 66.0683 437.5C63.7883 437.75 62.7883 438.36 62.7883 439.54C62.7883 440.51 63.4583 441.14 64.3983 441.14ZM64.7583 440.22C64.2683 440.22 63.8983 440 63.8983 439.46C63.8983 438.84 64.4383 438.43 66.0683 438.24V439.58C65.6183 440 65.2383 440.22 64.7583 440.22ZM70.0002 441.14C70.2902 441.14 70.4702 441.09 70.6202 441.04L70.4702 440.17C70.3702 440.19 70.3302 440.19 70.2802 440.19C70.1402 440.19 70.0102 440.08 70.0102 439.77V433.04H68.8502V439.71C68.8502 440.6 69.1602 441.14 70.0002 441.14ZM72.9788 441.14C73.2688 441.14 73.4488 441.09 73.5988 441.04L73.4488 440.17C73.3488 440.19 73.3088 440.19 73.2588 440.19C73.1188 440.19 72.9888 440.08 72.9888 439.77V433.04H71.8288V439.71C71.8288 440.6 72.1388 441.14 72.9788 441.14Z" fill="black"/>
<path d="M49.274 367H52.97C55.238 367 56.974 366.034 56.974 363.948C56.974 362.562 56.148 361.764 55.042 361.498V361.442C55.924 361.12 56.442 360.154 56.442 359.202C56.442 357.27 54.818 356.64 52.69 356.64H49.274V367ZM51.346 360.854V358.236H52.578C53.824 358.236 54.426 358.586 54.426 359.496C54.426 360.336 53.866 360.854 52.55 360.854H51.346ZM51.346 365.404V362.394H52.788C54.216 362.394 54.958 362.828 54.958 363.836C54.958 364.9 54.188 365.404 52.788 365.404H51.346ZM61.9113 367.196C63.8713 367.196 65.6633 365.684 65.6633 363.094C65.6633 360.49 63.8713 358.978 61.9113 358.978C59.9373 358.978 58.1453 360.49 58.1453 363.094C58.1453 365.684 59.9373 367.196 61.9113 367.196ZM61.9113 365.53C60.8333 365.53 60.2453 364.564 60.2453 363.094C60.2453 361.61 60.8333 360.658 61.9113 360.658C62.9753 360.658 63.5633 361.61 63.5633 363.094C63.5633 364.564 62.9753 365.53 61.9113 365.53ZM70.157 367.196C70.969 367.196 71.753 366.762 72.327 366.188H72.369L72.523 367H74.203V355.842H72.145V358.586L72.229 359.818C71.655 359.3 71.109 358.978 70.227 358.978C68.547 358.978 66.937 360.532 66.937 363.094C66.937 365.67 68.197 367.196 70.157 367.196ZM70.675 365.502C69.653 365.502 69.051 364.704 69.051 363.066C69.051 361.498 69.807 360.658 70.689 360.658C71.179 360.658 71.683 360.826 72.145 361.26V364.704C71.697 365.278 71.235 365.502 70.675 365.502ZM77.0807 370.15C78.8447 370.15 79.6847 369.086 80.3707 367.252L83.1567 359.174H81.1827L80.0907 362.8C79.9087 363.542 79.7127 364.284 79.5447 365.026H79.4747C79.2367 364.27 79.0407 363.514 78.8027 362.8L77.5707 359.174H75.4847L78.5367 366.86L78.4107 367.322C78.1727 368.022 77.7247 368.526 76.9407 368.526C76.7447 368.526 76.5347 368.456 76.3947 368.414L76.0167 369.996C76.3107 370.094 76.6327 370.15 77.0807 370.15ZM83.9298 367H90.8738V365.264H88.6058C88.1158 365.264 87.4298 365.334 86.9118 365.39C88.7598 363.458 90.3978 361.624 90.3978 359.874C90.3978 357.956 89.0818 356.724 87.1358 356.724C85.7218 356.724 84.7838 357.27 83.8318 358.292L84.9658 359.412C85.4978 358.852 86.0998 358.334 86.8698 358.334C87.8638 358.334 88.4098 358.95 88.4098 359.972C88.4098 361.484 86.6318 363.234 83.9298 365.824V367ZM94.9535 369.548H96.3255L99.8115 355.716H98.4535L94.9535 369.548ZM108.383 367.196C110.105 367.196 111.715 365.656 111.715 362.954C111.715 360.546 110.553 358.978 108.635 358.978C107.851 358.978 107.081 359.356 106.451 359.902L106.521 358.656V355.842H104.463V367H106.073L106.241 366.174H106.297C106.927 366.832 107.683 367.196 108.383 367.196ZM107.935 365.502C107.515 365.502 106.997 365.362 106.521 364.928V361.47C107.039 360.924 107.529 360.658 108.047 360.658C109.139 360.658 109.601 361.484 109.601 362.996C109.601 364.69 108.873 365.502 107.935 365.502ZM116.749 367.196C118.709 367.196 120.501 365.684 120.501 363.094C120.501 360.49 118.709 358.978 116.749 358.978C114.775 358.978 112.983 360.49 112.983 363.094C112.983 365.684 114.775 367.196 116.749 367.196ZM116.749 365.53C115.671 365.53 115.083 364.564 115.083 363.094C115.083 361.61 115.671 360.658 116.749 360.658C117.813 360.658 118.401 361.61 118.401 363.094C118.401 364.564 117.813 365.53 116.749 365.53ZM124.169 367.196C124.659 367.196 124.981 367.112 125.219 367.028L124.967 365.502C124.827 365.53 124.771 365.53 124.701 365.53C124.505 365.53 124.295 365.376 124.295 364.886V355.842H122.237V364.802C122.237 366.258 122.727 367.196 124.169 367.196ZM129.411 367.196C130.223 367.196 131.007 366.762 131.581 366.188H131.623L131.777 367H133.457V355.842H131.399V358.586L131.483 359.818C130.909 359.3 130.363 358.978 129.481 358.978C127.801 358.978 126.191 360.532 126.191 363.094C126.191 365.67 127.451 367.196 129.411 367.196ZM129.929 365.502C128.907 365.502 128.305 364.704 128.305 363.066C128.305 361.498 129.061 360.658 129.943 360.658C130.433 360.658 130.937 360.826 131.399 361.26V364.704C130.951 365.278 130.489 365.502 129.929 365.502Z" fill="black"/>
<path d="M53.236 220H56.492V206.426H61.09V203.72H48.638V206.426H53.236V220ZM63.488 220H66.722V207.702H63.488V220ZM65.094 205.7C66.216 205.7 66.986 204.996 66.986 203.918C66.986 202.862 66.216 202.18 65.094 202.18C63.972 202.18 63.224 202.862 63.224 203.918C63.224 204.996 63.972 205.7 65.094 205.7ZM74.6576 220.308C75.7576 220.308 76.6156 220.066 77.2756 219.846L76.7476 217.492C76.3956 217.624 75.9336 217.778 75.5156 217.778C74.4376 217.778 73.8436 217.118 73.8436 215.71V210.232H76.9016V207.702H73.8436V204.358H71.1596L70.8076 207.702L68.8936 207.834V210.232H70.6096V215.71C70.6096 218.46 71.7316 220.308 74.6576 220.308ZM82.4654 220.308C83.2354 220.308 83.7414 220.176 84.1154 220.044L83.7194 217.646C83.4994 217.69 83.4114 217.69 83.3014 217.69C82.9934 217.69 82.6634 217.448 82.6634 216.678V202.466H79.4294V216.546C79.4294 218.834 80.1994 220.308 82.4654 220.308ZM91.7369 220.308C93.2549 220.308 94.7949 219.802 96.0049 218.966L94.9269 216.964C94.0249 217.514 93.1449 217.822 92.1549 217.822C90.3289 217.822 89.0089 216.788 88.7229 214.764H96.3349C96.4009 214.456 96.4669 213.884 96.4669 213.268C96.4669 209.858 94.7289 207.394 91.3189 207.394C88.4149 207.394 85.5989 209.858 85.5989 213.862C85.5989 217.932 88.2829 220.308 91.7369 220.308ZM88.6789 212.608C88.9429 210.804 90.0869 209.88 91.3849 209.88C92.9689 209.88 93.7169 210.936 93.7169 212.608H88.6789ZM98.3381 220H109.25V217.272H105.686C104.916 217.272 103.838 217.382 103.024 217.47C105.928 214.434 108.502 211.552 108.502 208.802C108.502 205.788 106.434 203.852 103.376 203.852C101.154 203.852 99.6801 204.71 98.1841 206.316L99.9661 208.076C100.802 207.196 101.748 206.382 102.958 206.382C104.52 206.382 105.378 207.35 105.378 208.956C105.378 211.332 102.584 214.082 98.3381 218.152V220Z" fill="black"/>
<path d="M53.712 172H57.264V157.192H62.28V154.24H48.696V157.192H53.712V172ZM64.896 172H68.424V158.584H64.896V172ZM66.648 156.4C67.872 156.4 68.712 155.632 68.712 154.456C68.712 153.304 67.872 152.56 66.648 152.56C65.424 152.56 64.608 153.304 64.608 154.456C64.608 155.632 65.424 156.4 66.648 156.4ZM77.0811 172.336C78.2811 172.336 79.2171 172.072 79.9371 171.832L79.3611 169.264C78.9771 169.408 78.4731 169.576 78.0171 169.576C76.8411 169.576 76.1931 168.856 76.1931 167.32V161.344H79.5291V158.584H76.1931V154.936H73.2651L72.8811 158.584L70.7931 158.728V161.344H72.6651V167.32C72.6651 170.32 73.8891 172.336 77.0811 172.336ZM85.5986 172.336C86.4386 172.336 86.9906 172.192 87.3986 172.048L86.9666 169.432C86.7266 169.48 86.6306 169.48 86.5106 169.48C86.1746 169.48 85.8146 169.216 85.8146 168.376V152.872H82.2866V168.232C82.2866 170.728 83.1266 172.336 85.5986 172.336ZM95.7129 172.336C97.3689 172.336 99.0489 171.784 100.369 170.872L99.1929 168.688C98.2089 169.288 97.2489 169.624 96.1689 169.624C94.1769 169.624 92.7369 168.496 92.4249 166.288H100.729C100.801 165.952 100.873 165.328 100.873 164.656C100.873 160.936 98.9769 158.248 95.2569 158.248C92.0889 158.248 89.0169 160.936 89.0169 165.304C89.0169 169.744 91.9449 172.336 95.7129 172.336ZM92.3769 163.936C92.6649 161.968 93.9129 160.96 95.3289 160.96C97.0569 160.96 97.8729 162.112 97.8729 163.936H92.3769ZM103.85 172H114.554V169.144H111.218V154.696H108.602C107.45 155.392 106.25 155.848 104.45 156.208V158.392H107.69V169.144H103.85V172Z" fill="black"/>
<path d="M221.18 294.62V296.34H224.52V294.62H221.18ZM221.18 300.22V301.94H224.52V300.22H221.18ZM227.52 290.38V308.66H229.52V290.38H227.52ZM223.9 290.72V307.78H225.86V290.72H223.9ZM218.02 291.8C215.64 291.8 214.1 294.28 214.1 298.28C214.1 302.3 215.64 304.78 218.02 304.78C220.42 304.78 221.96 302.3 221.96 298.28C221.96 294.28 220.42 291.8 218.02 291.8ZM218.02 293.76C219.28 293.76 220.06 295.4 220.06 298.28C220.06 301.16 219.28 302.8 218.02 302.8C216.76 302.8 216 301.16 216 298.28C216 295.4 216.76 293.76 218.02 293.76ZM245.898 290.38V308.66H247.898V290.38H245.898ZM239.518 296.8V298.52H242.818V296.8H239.518ZM242.218 290.74V307.76H244.178V290.74H242.218ZM235.818 293.28V295.4C235.818 298.66 234.618 301.96 232.018 303.56L233.278 305.12C236.058 303.36 237.418 299.44 237.418 295.4V293.28H235.818ZM236.278 293.28V295.4C236.278 299.32 237.558 303.02 240.338 304.68L241.578 303.14C239.018 301.64 237.858 298.52 237.858 295.4V293.28H236.278ZM232.598 292.38V294.08H240.858V292.38H232.598ZM262.989 295.1V296.8H265.949V295.1H262.989ZM255.969 299.12V300.78H257.169C259.989 300.78 261.709 300.72 263.809 300.32L263.609 298.66C261.589 299.04 259.909 299.12 257.169 299.12H255.969ZM255.969 291.64V299.84H257.989V293.32H262.869V291.64H255.969ZM257.389 295.34V296.94H262.169V295.34H257.389ZM258.249 302.54V304.22H268.589V308.66H270.669V302.54H258.249ZM268.689 290.38V301.74H270.669V290.38H268.689ZM265.129 290.76V301.6H267.109V290.76H265.129ZM280.688 291.54V292.92C280.688 295.8 277.768 298.64 274.148 299.3L275.068 301.04C279.188 300.16 282.508 296.88 282.508 292.92V291.54H280.688ZM281.088 291.54V292.92C281.088 296.92 284.408 300.16 288.528 301.04L289.448 299.3C285.828 298.64 282.908 295.84 282.908 292.92V291.54H281.088ZM273.608 304.58V306.3H290.168V304.58H273.608ZM294.046 300.04V301.7H306.726V300.04H294.046ZM292.006 304.7V306.42H308.566V304.7H292.006ZM294.046 291.84V300.52H296.166V293.54H306.546V291.84H294.046ZM295.506 295.9V297.54H306.146V295.9H295.506ZM327.857 290.38V300.2H329.957V290.38H327.857ZM318.017 301.06V308.44H329.957V301.06H327.877V303.04H320.077V301.06H318.017ZM320.077 304.68H327.877V306.76H320.077V304.68ZM320.097 291.2C317.297 291.2 315.237 292.94 315.237 295.46C315.237 297.96 317.297 299.72 320.097 299.72C322.897 299.72 324.937 297.96 324.937 295.46C324.937 292.94 322.897 291.2 320.097 291.2ZM320.097 292.94C321.737 292.94 322.897 293.94 322.897 295.46C322.897 296.98 321.737 297.98 320.097 297.98C318.457 297.98 317.277 296.98 317.277 295.46C317.277 293.94 318.457 292.94 320.097 292.94ZM346.295 290.38V308.66H348.375V290.38H346.295ZM334.355 292.14V303.48H336.435V292.14H334.355ZM334.355 302.24V304.04H335.915C338.755 304.04 341.695 303.84 344.855 303.18L344.615 301.42C341.555 302.04 338.635 302.24 335.915 302.24H334.355ZM363.753 290.36V308.68H365.853V290.36H363.753ZM365.373 297.38V299.12H368.693V297.38H365.373ZM352.433 302.46V304.2H353.913C357.233 304.2 359.673 304.1 362.473 303.6L362.253 301.84C359.553 302.34 357.153 302.46 353.913 302.46H352.433ZM352.433 292.1V303.26H354.513V293.8H360.933V292.1H352.433ZM372.152 307.28C373.012 307.28 373.692 306.6 373.692 305.66C373.692 304.7 373.012 304.04 372.152 304.04C371.272 304.04 370.612 304.7 370.612 305.66C370.612 306.6 371.272 307.28 372.152 307.28Z" fill="black"/>
<path d="M218.726 337.334V338.538H221.064V337.334H218.726ZM218.726 341.254V342.458H221.064V341.254H218.726ZM223.164 334.366V347.162H224.564V334.366H223.164ZM220.63 334.604V346.546H222.002V334.604H220.63ZM216.514 335.36C214.848 335.36 213.77 337.096 213.77 339.896C213.77 342.71 214.848 344.446 216.514 344.446C218.194 344.446 219.272 342.71 219.272 339.896C219.272 337.096 218.194 335.36 216.514 335.36ZM216.514 336.732C217.396 336.732 217.942 337.88 217.942 339.896C217.942 341.912 217.396 343.06 216.514 343.06C215.632 343.06 215.1 341.912 215.1 339.896C215.1 337.88 215.632 336.732 216.514 336.732ZM236.029 334.366V347.162H237.429V334.366H236.029ZM231.563 338.86V340.064H233.873V338.86H231.563ZM233.453 334.618V346.532H234.825V334.618H233.453ZM228.973 336.396V337.88C228.973 340.162 228.133 342.472 226.313 343.592L227.195 344.684C229.141 343.452 230.093 340.708 230.093 337.88V336.396H228.973ZM229.295 336.396V337.88C229.295 340.624 230.191 343.214 232.137 344.376L233.005 343.298C231.213 342.248 230.401 340.064 230.401 337.88V336.396H229.295ZM226.719 335.766V336.956H232.501V335.766H226.719ZM247.992 337.67V338.86H250.064V337.67H247.992ZM243.078 340.484V341.646H243.918C245.892 341.646 247.096 341.604 248.566 341.324L248.426 340.162C247.012 340.428 245.836 340.484 243.918 340.484H243.078ZM243.078 335.248V340.988H244.492V336.424H247.908V335.248H243.078ZM244.072 337.838V338.958H247.418V337.838H244.072ZM244.674 342.878V344.054H251.912V347.162H253.368V342.878H244.674ZM251.982 334.366V342.318H253.368V334.366H251.982ZM249.49 334.632V342.22H250.876V334.632H249.49ZM260.381 335.178V336.144C260.381 338.16 258.337 340.148 255.803 340.61L256.447 341.828C259.331 341.212 261.655 338.916 261.655 336.144V335.178H260.381ZM260.661 335.178V336.144C260.661 338.944 262.985 341.212 265.869 341.828L266.513 340.61C263.979 340.148 261.935 338.188 261.935 336.144V335.178H260.661ZM255.425 344.306V345.51H267.017V344.306H255.425ZM269.732 341.128V342.29H278.608V341.128H269.732ZM268.304 344.39V345.594H279.896V344.39H268.304ZM269.732 335.388V341.464H271.216V336.578H278.482V335.388H269.732ZM270.754 338.23V339.378H278.202V338.23H270.754ZM293.4 334.366V341.24H294.87V334.366H293.4ZM286.512 341.842V347.008H294.87V341.842H293.414V343.228H287.954V341.842H286.512ZM287.954 344.376H293.414V345.832H287.954V344.376ZM287.968 334.94C286.008 334.94 284.566 336.158 284.566 337.922C284.566 339.672 286.008 340.904 287.968 340.904C289.928 340.904 291.356 339.672 291.356 337.922C291.356 336.158 289.928 334.94 287.968 334.94ZM287.968 336.158C289.116 336.158 289.928 336.858 289.928 337.922C289.928 338.986 289.116 339.686 287.968 339.686C286.82 339.686 285.994 338.986 285.994 337.922C285.994 336.858 286.82 336.158 287.968 336.158ZM306.307 334.366V347.162H307.763V334.366H306.307ZM297.949 335.598V343.536H299.405V335.598H297.949ZM297.949 342.668V343.928H299.041C301.029 343.928 303.087 343.788 305.299 343.326L305.131 342.094C302.989 342.528 300.945 342.668 299.041 342.668H297.949ZM318.527 334.352V347.176H319.997V334.352H318.527ZM319.661 339.266V340.484H321.985V339.266H319.661ZM310.603 342.822V344.04H311.639C313.963 344.04 315.671 343.97 317.631 343.62L317.477 342.388C315.587 342.738 313.907 342.822 311.639 342.822H310.603ZM310.603 335.57V343.382H312.059V336.76H316.553V335.57H310.603ZM324.406 346.196C325.008 346.196 325.484 345.72 325.484 345.062C325.484 344.39 325.008 343.928 324.406 343.928C323.79 343.928 323.328 344.39 323.328 345.062C323.328 345.72 323.79 346.196 324.406 346.196Z" fill="black"/>
<path d="M219.544 396.096V397.472H222.216V396.096H219.544ZM219.544 400.576V401.952H222.216V400.576H219.544ZM224.616 392.704V407.328H226.216V392.704H224.616ZM221.72 392.976V406.624H223.288V392.976H221.72ZM217.016 393.84C215.112 393.84 213.88 395.824 213.88 399.024C213.88 402.24 215.112 404.224 217.016 404.224C218.936 404.224 220.168 402.24 220.168 399.024C220.168 395.824 218.936 393.84 217.016 393.84ZM217.016 395.408C218.024 395.408 218.648 396.72 218.648 399.024C218.648 401.328 218.024 402.64 217.016 402.64C216.008 402.64 215.4 401.328 215.4 399.024C215.4 396.72 216.008 395.408 217.016 395.408ZM239.319 392.704V407.328H240.919V392.704H239.319ZM234.215 397.84V399.216H236.855V397.84H234.215ZM236.375 392.992V406.608H237.943V392.992H236.375ZM231.255 395.024V396.72C231.255 399.328 230.295 401.968 228.215 403.248L229.223 404.496C231.447 403.088 232.535 399.952 232.535 396.72V395.024H231.255ZM231.623 395.024V396.72C231.623 399.856 232.647 402.816 234.871 404.144L235.863 402.912C233.815 401.712 232.887 399.216 232.887 396.72V395.024H231.623ZM228.679 394.304V395.664H235.287V394.304H228.679ZM252.991 396.48V397.84H255.359V396.48H252.991ZM247.375 399.696V401.024H248.335C250.591 401.024 251.967 400.976 253.647 400.656L253.487 399.328C251.871 399.632 250.527 399.696 248.335 399.696H247.375ZM247.375 393.712V400.272H248.991V395.056H252.895V393.712H247.375ZM248.511 396.672V397.952H252.335V396.672H248.511ZM249.199 402.432V403.776H257.471V407.328H259.135V402.432H249.199ZM257.551 392.704V401.792H259.135V392.704H257.551ZM254.703 393.008V401.68H256.287V393.008H254.703ZM267.15 393.632V394.736C267.15 397.04 264.814 399.312 261.918 399.84L262.654 401.232C265.95 400.528 268.606 397.904 268.606 394.736V393.632H267.15ZM267.47 393.632V394.736C267.47 397.936 270.126 400.528 273.422 401.232L274.158 399.84C271.262 399.312 268.926 397.072 268.926 394.736V393.632H267.47ZM261.486 404.064V405.44H274.734V404.064H261.486ZM277.837 400.432V401.76H287.981V400.432H277.837ZM276.205 404.16V405.536H289.453V404.16H276.205ZM277.837 393.872V400.816H279.533V395.232H287.837V393.872H277.837ZM279.005 397.12V398.432H287.517V397.12H279.005ZM304.885 392.704V400.56H306.565V392.704H304.885ZM297.013 401.248V407.152H306.565V401.248H304.901V402.832H298.661V401.248H297.013ZM298.661 404.144H304.901V405.808H298.661V404.144ZM298.677 393.36C296.437 393.36 294.789 394.752 294.789 396.768C294.789 398.768 296.437 400.176 298.677 400.176C300.917 400.176 302.549 398.768 302.549 396.768C302.549 394.752 300.917 393.36 298.677 393.36ZM298.677 394.752C299.989 394.752 300.917 395.552 300.917 396.768C300.917 397.984 299.989 398.784 298.677 398.784C297.365 398.784 296.421 397.984 296.421 396.768C296.421 395.552 297.365 394.752 298.677 394.752ZM319.636 392.704V407.328H321.3V392.704H319.636ZM310.084 394.112V403.184H311.748V394.112H310.084ZM310.084 402.192V403.632H311.332C313.604 403.632 315.956 403.472 318.484 402.944L318.292 401.536C315.844 402.032 313.508 402.192 311.332 402.192H310.084ZM333.603 392.688V407.344H335.283V392.688H333.603ZM334.899 398.304V399.696H337.555V398.304H334.899ZM324.547 402.368V403.76H325.731C328.387 403.76 330.339 403.68 332.579 403.28L332.403 401.872C330.243 402.272 328.323 402.368 325.731 402.368H324.547ZM324.547 394.08V403.008H326.211V395.44H331.347V394.08H324.547ZM340.322 406.224C341.01 406.224 341.554 405.68 341.554 404.928C341.554 404.16 341.01 403.632 340.322 403.632C339.618 403.632 339.09 404.16 339.09 404.928C339.09 405.68 339.618 406.224 340.322 406.224Z" fill="black"/>
<path d="M217.09 434.81V435.67H218.76V434.81H217.09ZM217.09 437.61V438.47H218.76V437.61H217.09ZM220.26 432.69V441.83H221.26V432.69H220.26ZM218.45 432.86V441.39H219.43V432.86H218.45ZM215.51 433.4C214.32 433.4 213.55 434.64 213.55 436.64C213.55 438.65 214.32 439.89 215.51 439.89C216.71 439.89 217.48 438.65 217.48 436.64C217.48 434.64 216.71 433.4 215.51 433.4ZM215.51 434.38C216.14 434.38 216.53 435.2 216.53 436.64C216.53 438.08 216.14 438.9 215.51 438.9C214.88 438.9 214.5 438.08 214.5 436.64C214.5 435.2 214.88 434.38 215.51 434.38ZM229.449 432.69V441.83H230.449V432.69H229.449ZM226.259 435.9V436.76H227.909V435.9H226.259ZM227.609 432.87V441.38H228.589V432.87H227.609ZM224.409 434.14V435.2C224.409 436.83 223.809 438.48 222.509 439.28L223.139 440.06C224.529 439.18 225.209 437.22 225.209 435.2V434.14H224.409ZM224.639 434.14V435.2C224.639 437.16 225.279 439.01 226.669 439.84L227.289 439.07C226.009 438.32 225.429 436.76 225.429 435.2V434.14H224.639ZM222.799 433.69V434.54H226.929V433.69H222.799ZM237.995 435.05V435.9H239.475V435.05H237.995ZM234.485 437.06V437.89H235.085C236.495 437.89 237.355 437.86 238.405 437.66L238.305 436.83C237.295 437.02 236.455 437.06 235.085 437.06H234.485ZM234.485 433.32V437.42H235.495V434.16H237.935V433.32H234.485ZM235.195 435.17V435.97H237.585V435.17H235.195ZM235.625 438.77V439.61H240.795V441.83H241.835V438.77H235.625ZM240.845 432.69V438.37H241.835V432.69H240.845ZM239.065 432.88V438.3H240.055V432.88H239.065ZM246.844 433.27V433.96C246.844 435.4 245.384 436.82 243.574 437.15L244.034 438.02C246.094 437.58 247.754 435.94 247.754 433.96V433.27H246.844ZM247.044 433.27V433.96C247.044 435.96 248.704 437.58 250.764 438.02L251.224 437.15C249.414 436.82 247.954 435.42 247.954 433.96V433.27H247.044ZM243.304 439.79V440.65H251.584V439.79H243.304ZM253.523 437.52V438.35H259.863V437.52H253.523ZM252.503 439.85V440.71H260.783V439.85H252.503ZM253.523 433.42V437.76H254.583V434.27H259.773V433.42H253.523ZM254.253 435.45V436.27H259.573V435.45H254.253ZM270.428 432.69V437.6H271.478V432.69H270.428ZM265.508 438.03V441.72H271.478V438.03H270.438V439.02H266.538V438.03H265.508ZM266.538 439.84H270.438V440.88H266.538V439.84ZM266.548 433.1C265.148 433.1 264.118 433.97 264.118 435.23C264.118 436.48 265.148 437.36 266.548 437.36C267.948 437.36 268.968 436.48 268.968 435.23C268.968 433.97 267.948 433.1 266.548 433.1ZM266.548 433.97C267.368 433.97 267.948 434.47 267.948 435.23C267.948 435.99 267.368 436.49 266.548 436.49C265.728 436.49 265.138 435.99 265.138 435.23C265.138 434.47 265.728 433.97 266.548 433.97ZM279.648 432.69V441.83H280.688V432.69H279.648ZM273.678 433.57V439.24H274.718V433.57H273.678ZM273.678 438.62V439.52H274.458C275.878 439.52 277.348 439.42 278.928 439.09L278.808 438.21C277.278 438.52 275.818 438.62 274.458 438.62H273.678ZM288.377 432.68V441.84H289.427V432.68H288.377ZM289.187 436.19V437.06H290.847V436.19H289.187ZM282.717 438.73V439.6H283.457C285.117 439.6 286.337 439.55 287.737 439.3L287.627 438.42C286.277 438.67 285.077 438.73 283.457 438.73H282.717ZM282.717 433.55V439.13H283.757V434.4H286.967V433.55H282.717ZM292.576 441.14C293.006 441.14 293.346 440.8 293.346 440.33C293.346 439.85 293.006 439.52 292.576 439.52C292.136 439.52 291.806 439.85 291.806 440.33C291.806 440.8 292.136 441.14 292.576 441.14Z" fill="black"/>
<path d="M218.712 359.138V360.636H220.868V359.138H218.712ZM218.712 363.142V364.654H220.868V363.142H218.712ZM222.926 356.282V369.246H224.704V356.282H222.926ZM220.336 356.478V368.658H222.072V356.478H220.336ZM216.472 357.192C214.764 357.192 213.672 358.97 213.672 361.896C213.672 364.836 214.764 366.614 216.472 366.614C218.194 366.614 219.3 364.836 219.3 361.896C219.3 358.97 218.194 357.192 216.472 357.192ZM216.472 358.942C217.2 358.942 217.62 359.922 217.62 361.896C217.62 363.884 217.2 364.85 216.472 364.85C215.758 364.85 215.338 363.884 215.338 361.896C215.338 359.922 215.758 358.942 216.472 358.942ZM235.805 356.282V369.246H237.569V356.282H235.805ZM231.535 360.706V362.218H233.677V360.706H231.535ZM233.187 356.492V368.658H234.923V356.492H233.187ZM228.735 358.396V359.726C228.735 361.938 228.077 364.262 226.173 365.452L227.279 366.824C229.337 365.536 230.135 362.638 230.135 359.726V358.396H228.735ZM229.155 358.396V359.726C229.155 362.582 229.911 365.298 231.969 366.516L233.061 365.158C231.185 364.066 230.541 361.882 230.541 359.726V358.396H229.155ZM226.663 357.584V359.082H232.445V357.584H226.663ZM247.964 359.572V361.056H249.938V359.572H247.964ZM242.994 362.358V363.814H243.876C245.794 363.814 247.026 363.786 248.496 363.534L248.328 362.078C246.914 362.316 245.724 362.358 243.876 362.358H242.994ZM242.994 357.136V363.002H244.786V358.606H247.88V357.136H242.994ZM244.254 359.754V361.154H247.404V359.754H244.254ZM244.618 364.892V366.362H251.688V369.246H253.536V364.892H244.618ZM251.772 356.282V364.374H253.536V356.282H251.772ZM249.238 356.534V364.29H250.974V356.534H249.238ZM260.185 357.024V357.962C260.185 359.824 258.575 361.882 255.649 362.386L256.447 363.926C259.807 363.268 261.809 360.776 261.809 357.962V357.024H260.185ZM260.563 357.024V357.962C260.563 360.818 262.551 363.268 265.911 363.926L266.709 362.386C263.769 361.882 262.173 359.866 262.173 357.962V357.024H260.563ZM255.383 366.152V367.664H267.115V366.152H255.383ZM269.634 362.96V364.416H278.748V362.96H269.634ZM268.262 366.25V367.762H279.994V366.25H268.262ZM269.634 357.22V363.366H271.524V358.718H278.636V357.22H269.634ZM270.95 360.076V361.518H278.342V360.076H270.95ZM293.202 356.282V363.254H295.078V356.282H293.202ZM286.454 363.814V369.106H295.078V363.814H293.23V365.018H288.288V363.814H286.454ZM288.288 366.446H293.23V367.622H288.288V366.446ZM288.022 356.814C286.006 356.814 284.494 358.088 284.494 359.88C284.494 361.672 286.006 362.946 288.022 362.946C290.038 362.946 291.536 361.672 291.536 359.88C291.536 358.088 290.038 356.814 288.022 356.814ZM288.022 358.354C289.002 358.354 289.716 358.928 289.716 359.88C289.716 360.846 289.002 361.406 288.022 361.406C287.028 361.406 286.314 360.846 286.314 359.88C286.314 358.928 287.028 358.354 288.022 358.354ZM306.151 356.282V369.246H308.013V356.282H306.151ZM297.863 357.514V365.564H299.711V357.514H297.863ZM297.863 364.472V366.054H299.011C300.985 366.054 303.127 365.914 305.353 365.452L305.143 363.912C303.001 364.332 300.901 364.472 299.011 364.472H297.863ZM318.344 356.268V369.274H320.22V356.268H318.344ZM319.8 361.07V362.596H322.096V361.07H319.8ZM310.56 364.612V366.152H311.652C313.906 366.152 315.684 366.096 317.644 365.746L317.462 364.206C315.558 364.542 313.836 364.612 311.652 364.612H310.56ZM310.56 357.472V365.354H312.408V358.97H316.608V357.472H310.56ZM324.643 368.196C325.371 368.196 325.931 367.622 325.931 366.852C325.931 366.082 325.371 365.522 324.643 365.522C323.901 365.522 323.369 366.082 323.369 366.852C323.369 367.622 323.901 368.196 324.643 368.196Z" fill="black"/>
<path d="M222.792 156.808V159.376H226.488V156.808H222.792ZM222.792 163.672V166.264H226.488V163.672H222.792ZM230.016 151.912V174.136H233.064V151.912H230.016ZM225.576 152.248V173.128H228.552V152.248H225.576ZM218.952 153.472C216.024 153.472 214.152 156.52 214.152 161.536C214.152 166.576 216.024 169.624 218.952 169.624C221.904 169.624 223.8 166.576 223.8 161.536C223.8 156.52 221.904 153.472 218.952 153.472ZM218.952 156.472C220.2 156.472 220.92 158.152 220.92 161.536C220.92 164.944 220.2 166.6 218.952 166.6C217.728 166.6 217.008 164.944 217.008 161.536C217.008 158.152 217.728 156.472 218.952 156.472ZM252.094 151.912V174.136H255.118V151.912H252.094ZM244.774 159.496V162.088H248.446V159.496H244.774ZM247.606 152.272V173.128H250.582V152.272H247.606ZM239.974 155.536V157.816C239.974 161.608 238.846 165.592 235.582 167.632L237.478 169.984C241.006 167.776 242.374 162.808 242.374 157.816V155.536H239.974ZM240.694 155.536V157.816C240.694 162.712 241.99 167.368 245.518 169.456L247.39 167.128C244.174 165.256 243.07 161.512 243.07 157.816V155.536H240.694ZM236.422 154.144V156.712H246.334V154.144H236.422ZM272.938 157.552V160.096H276.322V157.552H272.938ZM264.418 162.328V164.824H265.93C269.218 164.824 271.33 164.776 273.85 164.344L273.562 161.848C271.138 162.256 269.098 162.328 265.93 162.328H264.418ZM264.418 153.376V163.432H267.49V155.896H272.794V153.376H264.418ZM266.578 157.864V160.264H271.978V157.864H266.578ZM267.202 166.672V169.192H279.322V174.136H282.49V166.672H267.202ZM279.466 151.912V165.784H282.49V151.912H279.466ZM275.122 152.344V165.64H278.098V152.344H275.122ZM293.888 153.184V154.792C293.888 157.984 291.128 161.512 286.112 162.376L287.48 165.016C293.24 163.888 296.672 159.616 296.672 154.792V153.184H293.888ZM294.536 153.184V154.792C294.536 159.688 297.944 163.888 303.704 165.016L305.072 162.376C300.032 161.512 297.296 158.056 297.296 154.792V153.184H294.536ZM285.656 168.832V171.424H305.768V168.832H285.656ZM310.086 163.36V165.856H325.71V163.36H310.086ZM307.734 169V171.592H327.846V169H307.734ZM310.086 153.52V164.056H313.326V156.088H325.518V153.52H310.086ZM312.342 158.416V160.888H325.014V158.416H312.342ZM350.49 151.912V163.864H353.706V151.912H350.49ZM338.922 164.824V173.896H353.706V164.824H350.538V166.888H342.066V164.824H338.922ZM342.066 169.336H350.538V171.352H342.066V169.336ZM341.61 152.824C338.154 152.824 335.562 155.008 335.562 158.08C335.562 161.152 338.154 163.336 341.61 163.336C345.066 163.336 347.634 161.152 347.634 158.08C347.634 155.008 345.066 152.824 341.61 152.824ZM341.61 155.464C343.29 155.464 344.514 156.448 344.514 158.08C344.514 159.736 343.29 160.696 341.61 160.696C339.906 160.696 338.682 159.736 338.682 158.08C338.682 156.448 339.906 155.464 341.61 155.464ZM372.688 151.912V174.136H375.88V151.912H372.688ZM358.48 154.024V167.824H361.648V154.024H358.48ZM358.48 165.952V168.664H360.448C363.832 168.664 367.504 168.424 371.32 167.632L370.96 164.992C367.288 165.712 363.688 165.952 360.448 165.952H358.48ZM393.59 151.888V174.184H396.806V151.888H393.59ZM396.086 160.12V162.736H400.022V160.12H396.086ZM380.246 166.192V168.832H382.118C385.982 168.832 389.03 168.736 392.39 168.136L392.078 165.496C388.814 166.072 385.862 166.192 382.118 166.192H380.246ZM380.246 153.952V167.464H383.414V156.52H390.614V153.952H380.246ZM404.388 172.336C405.636 172.336 406.596 171.352 406.596 170.032C406.596 168.712 405.636 167.752 404.388 167.752C403.116 167.752 402.204 168.712 402.204 170.032C402.204 171.352 403.116 172.336 404.388 172.336Z" fill="black"/>
<path d="M221.976 204.074V206.428H225.364V204.074H221.976ZM221.976 210.366V212.742H225.364V210.366H221.976ZM228.598 199.586V219.958H231.392V199.586H228.598ZM224.528 199.894V219.034H227.256V199.894H224.528ZM218.456 201.016C215.772 201.016 214.056 203.81 214.056 208.408C214.056 213.028 215.772 215.822 218.456 215.822C221.162 215.822 222.9 213.028 222.9 208.408C222.9 203.81 221.162 201.016 218.456 201.016ZM218.456 203.766C219.6 203.766 220.26 205.306 220.26 208.408C220.26 211.532 219.6 213.05 218.456 213.05C217.334 213.05 216.674 211.532 216.674 208.408C216.674 205.306 217.334 203.766 218.456 203.766ZM248.836 199.586V219.958H251.608V199.586H248.836ZM242.126 206.538V208.914H245.492V206.538H242.126ZM244.722 199.916V219.034H247.45V199.916H244.722ZM237.726 202.908V204.998C237.726 208.474 236.692 212.126 233.7 213.996L235.438 216.152C238.672 214.128 239.926 209.574 239.926 204.998V202.908H237.726ZM238.386 202.908V204.998C238.386 209.486 239.574 213.754 242.808 215.668L244.524 213.534C241.576 211.818 240.564 208.386 240.564 204.998V202.908H238.386ZM234.47 201.632V203.986H243.556V201.632H234.47ZM267.943 204.756V207.088H271.045V204.756H267.943ZM260.133 209.134V211.422H261.519C264.533 211.422 266.469 211.378 268.779 210.982L268.515 208.694C266.293 209.068 264.423 209.134 261.519 209.134H260.133ZM260.133 200.928V210.146H262.949V203.238H267.811V200.928H260.133ZM262.113 205.042V207.242H267.063V205.042H262.113ZM262.685 213.116V215.426H273.795V219.958H276.699V213.116H262.685ZM273.927 199.586V212.302H276.699V199.586H273.927ZM269.945 199.982V212.17H272.673V199.982H269.945ZM287.147 200.752V202.226C287.147 205.152 284.617 208.386 280.019 209.178L281.273 211.598C286.553 210.564 289.699 206.648 289.699 202.226V200.752H287.147ZM287.741 200.752V202.226C287.741 206.714 290.865 210.564 296.145 211.598L297.399 209.178C292.779 208.386 290.271 205.218 290.271 202.226V200.752H287.741ZM279.601 215.096V217.472H298.037V215.096H279.601ZM301.996 210.08V212.368H316.318V210.08H301.996ZM299.84 215.25V217.626H318.276V215.25H299.84ZM301.996 201.06V210.718H304.966V203.414H316.142V201.06H301.996ZM304.064 205.548V207.814H315.68V205.548H304.064ZM339.032 199.586V210.542H341.98V199.586H339.032ZM328.428 211.422V219.738H341.98V211.422H339.076V213.314H331.31V211.422H328.428ZM331.31 215.558H339.076V217.406H331.31V215.558ZM330.892 200.422C327.724 200.422 325.348 202.424 325.348 205.24C325.348 208.056 327.724 210.058 330.892 210.058C334.06 210.058 336.414 208.056 336.414 205.24C336.414 202.424 334.06 200.422 330.892 200.422ZM330.892 202.842C332.432 202.842 333.554 203.744 333.554 205.24C333.554 206.758 332.432 207.638 330.892 207.638C329.33 207.638 328.208 206.758 328.208 205.24C328.208 203.744 329.33 202.842 330.892 202.842ZM359.38 199.586V219.958H362.306V199.586H359.38ZM346.356 201.522V214.172H349.26V201.522H346.356ZM346.356 212.456V214.942H348.16C351.262 214.942 354.628 214.722 358.126 213.996L357.796 211.576C354.43 212.236 351.13 212.456 348.16 212.456H346.356ZM378.541 199.564V220.002H381.489V199.564H378.541ZM380.829 207.11V209.508H384.437V207.11H380.829ZM366.309 212.676V215.096H368.025C371.567 215.096 374.361 215.008 377.441 214.458L377.155 212.038C374.163 212.566 371.457 212.676 368.025 212.676H366.309ZM366.309 201.456V213.842H369.213V203.81H375.813V201.456H366.309ZM388.439 218.308C389.583 218.308 390.463 217.406 390.463 216.196C390.463 214.986 389.583 214.106 388.439 214.106C387.273 214.106 386.437 214.986 386.437 216.196C386.437 217.406 387.273 218.308 388.439 218.308Z" fill="black"/>
<path d="M220.344 250.606V252.532H223.116V250.606H220.344ZM220.344 255.754V257.698H223.116V255.754H220.344ZM225.762 246.934V263.602H228.048V246.934H225.762ZM222.432 247.186V262.846H224.664V247.186H222.432ZM217.464 248.104C215.268 248.104 213.864 250.39 213.864 254.152C213.864 257.932 215.268 260.218 217.464 260.218C219.678 260.218 221.1 257.932 221.1 254.152C221.1 250.39 219.678 248.104 217.464 248.104ZM217.464 250.354C218.4 250.354 218.94 251.614 218.94 254.152C218.94 256.708 218.4 257.95 217.464 257.95C216.546 257.95 216.006 256.708 216.006 254.152C216.006 251.614 216.546 250.354 217.464 250.354ZM242.321 246.934V263.602H244.589V246.934H242.321ZM236.831 252.622V254.566H239.585V252.622H236.831ZM238.955 247.204V262.846H241.187V247.204H238.955ZM233.231 249.652V251.362C233.231 254.206 232.385 257.194 229.937 258.724L231.359 260.488C234.005 258.832 235.031 255.106 235.031 251.362V249.652H233.231ZM233.771 249.652V251.362C233.771 255.034 234.743 258.526 237.389 260.092L238.793 258.346C236.381 256.942 235.553 254.134 235.553 251.362V249.652H233.771ZM230.567 248.608V250.534H238.001V248.608H230.567ZM257.953 251.164V253.072H260.491V251.164H257.953ZM251.563 254.746V256.618H252.697C255.163 256.618 256.747 256.582 258.637 256.258L258.421 254.386C256.603 254.692 255.073 254.746 252.697 254.746H251.563ZM251.563 248.032V255.574H253.867V249.922H257.845V248.032H251.563ZM253.183 251.398V253.198H257.233V251.398H253.183ZM253.651 258.004V259.894H262.741V263.602H265.117V258.004H253.651ZM262.849 246.934V257.338H265.117V246.934H262.849ZM259.591 247.258V257.23H261.823V247.258H259.591ZM273.666 247.888V249.094C273.666 251.488 271.596 254.134 267.834 254.782L268.86 256.762C273.18 255.916 275.754 252.712 275.754 249.094V247.888H273.666ZM274.152 247.888V249.094C274.152 252.766 276.708 255.916 281.028 256.762L282.054 254.782C278.274 254.134 276.222 251.542 276.222 249.094V247.888H274.152ZM267.492 259.624V261.568H282.576V259.624H267.492ZM285.815 255.52V257.392H297.533V255.52H285.815ZM284.051 259.75V261.694H299.135V259.75H284.051ZM285.815 248.14V256.042H288.245V250.066H297.389V248.14H285.815ZM287.507 251.812V253.666H297.011V251.812H287.507ZM316.117 246.934V255.898H318.529V246.934H316.117ZM307.441 256.618V263.422H318.529V256.618H316.153V258.166H309.799V256.618H307.441ZM309.799 260.002H316.153V261.514H309.799V260.002ZM309.457 247.618C306.865 247.618 304.921 249.256 304.921 251.56C304.921 253.864 306.865 255.502 309.457 255.502C312.049 255.502 313.975 253.864 313.975 251.56C313.975 249.256 312.049 247.618 309.457 247.618ZM309.457 249.598C310.717 249.598 311.635 250.336 311.635 251.56C311.635 252.802 310.717 253.522 309.457 253.522C308.179 253.522 307.261 252.802 307.261 251.56C307.261 250.336 308.179 249.598 309.457 249.598ZM332.766 246.934V263.602H335.16V246.934H332.766ZM322.11 248.518V258.868H324.486V248.518H322.11ZM322.11 257.464V259.498H323.586C326.124 259.498 328.878 259.318 331.74 258.724L331.47 256.744C328.716 257.284 326.016 257.464 323.586 257.464H322.11ZM348.442 246.916V263.638H350.854V246.916H348.442ZM350.314 253.09V255.052H353.266V253.09H350.314ZM338.434 257.644V259.624H339.838C342.736 259.624 345.022 259.552 347.542 259.102L347.308 257.122C344.86 257.554 342.646 257.644 339.838 257.644H338.434ZM338.434 248.464V258.598H340.81V250.39H346.21V248.464H338.434ZM356.541 262.252C357.477 262.252 358.197 261.514 358.197 260.524C358.197 259.534 357.477 258.814 356.541 258.814C355.587 258.814 354.903 259.534 354.903 260.524C354.903 261.514 355.587 262.252 356.541 262.252Z" fill="black"/>
<path d="M218 104H44V48H218V104Z" fill="#EAF3FE"/>
<path d="M218 104H44V48H218V104Z" stroke="black"/>
<path d="M65.712 86H69.264V71.192H74.28V68.24H60.696V71.192H65.712V86ZM77.2043 91.4C80.2283 91.4 81.6683 89.576 82.8443 86.432L87.6203 72.584H84.2363L82.3643 78.8C82.0523 80.072 81.7163 81.344 81.4283 82.616H81.3083C80.9003 81.32 80.5643 80.024 80.1562 78.8L78.0443 72.584H74.4683L79.7003 85.76L79.4843 86.552C79.0763 87.752 78.3083 88.616 76.9643 88.616C76.6283 88.616 76.2683 88.496 76.0283 88.424L75.3803 91.136C75.8843 91.304 76.4363 91.4 77.2043 91.4ZM89.8335 91.16H93.3615V87.08L93.2415 84.896C94.2495 85.832 95.4015 86.336 96.5535 86.336C99.5055 86.336 102.266 83.696 102.266 79.088C102.266 74.936 100.298 72.248 96.9855 72.248C95.5455 72.248 94.1535 72.992 93.0495 73.976H92.9775L92.6895 72.584H89.8335V91.16ZM95.7855 83.432C95.0655 83.432 94.2015 83.192 93.3615 82.448V76.52C94.2735 75.584 95.0895 75.128 95.9775 75.128C97.8495 75.128 98.6415 76.544 98.6415 79.136C98.6415 82.04 97.3935 83.432 95.7855 83.432ZM110.895 86.336C114.255 86.336 117.327 83.744 117.327 79.304C117.327 74.84 114.255 72.248 110.895 72.248C107.511 72.248 104.439 74.84 104.439 79.304C104.439 83.744 107.511 86.336 110.895 86.336ZM110.895 83.48C109.047 83.48 108.039 81.824 108.039 79.304C108.039 76.76 109.047 75.128 110.895 75.128C112.719 75.128 113.727 76.76 113.727 79.304C113.727 81.824 112.719 83.48 110.895 83.48ZM125.006 91.832C129.494 91.832 132.35 89.792 132.35 87.08C132.35 84.704 130.574 83.72 127.334 83.72H125.03C123.47 83.72 122.918 83.312 122.918 82.616C122.918 82.064 123.134 81.776 123.494 81.44C124.094 81.656 124.694 81.752 125.222 81.752C128.126 81.752 130.43 80.24 130.43 77.192C130.43 76.376 130.166 75.632 129.806 75.176H132.11V72.584H127.262C126.71 72.368 125.99 72.248 125.222 72.248C122.39 72.248 119.798 73.928 119.798 77.096C119.798 78.68 120.686 79.952 121.622 80.624V80.72C120.782 81.296 120.11 82.208 120.11 83.216C120.11 84.32 120.638 85.04 121.334 85.496V85.616C120.086 86.288 119.414 87.272 119.414 88.4C119.414 90.752 121.862 91.832 125.006 91.832ZM125.222 79.592C124.046 79.592 123.11 78.68 123.11 77.096C123.11 75.512 124.046 74.648 125.222 74.648C126.422 74.648 127.334 75.512 127.334 77.096C127.334 78.68 126.398 79.592 125.222 79.592ZM125.558 89.6C123.59 89.6 122.342 88.976 122.342 87.848C122.342 87.296 122.606 86.768 123.23 86.264C123.71 86.408 124.262 86.456 125.078 86.456H126.71C128.15 86.456 128.942 86.72 128.942 87.68C128.942 88.712 127.574 89.6 125.558 89.6ZM134.623 86H138.151V78.008C138.895 76.064 140.167 75.344 141.199 75.344C141.775 75.344 142.135 75.44 142.615 75.56L143.215 72.536C142.807 72.344 142.375 72.248 141.655 72.248C140.263 72.248 138.799 73.184 137.839 74.96H137.767L137.479 72.584H134.623V86ZM147.52 86.336C149.056 86.336 150.4 85.592 151.576 84.584H151.672L151.936 86H154.816V78.176C154.816 74.264 153.064 72.248 149.656 72.248C147.52 72.248 145.624 73.04 144.04 74L145.312 76.352C146.536 75.608 147.76 75.08 149.008 75.08C150.664 75.08 151.216 76.064 151.288 77.384C145.888 77.984 143.56 79.496 143.56 82.352C143.56 84.656 145.12 86.336 147.52 86.336ZM148.672 83.576C147.64 83.576 146.92 83.12 146.92 82.088C146.92 80.864 148 79.976 151.288 79.568V82.28C150.424 83.12 149.68 83.576 148.672 83.576ZM158.412 91.16H161.94V87.08L161.82 84.896C162.828 85.832 163.98 86.336 165.132 86.336C168.084 86.336 170.844 83.696 170.844 79.088C170.844 74.936 168.876 72.248 165.564 72.248C164.124 72.248 162.732 72.992 161.628 73.976H161.556L161.268 72.584H158.412V91.16ZM164.364 83.432C163.644 83.432 162.78 83.192 161.94 82.448V76.52C162.852 75.584 163.668 75.128 164.556 75.128C166.428 75.128 167.22 76.544 167.22 79.136C167.22 82.04 165.972 83.432 164.364 83.432ZM173.857 86H177.385V76.76C178.369 75.8 179.065 75.272 180.169 75.272C181.465 75.272 182.065 75.968 182.065 78.08V86H185.593V77.624C185.593 74.264 184.321 72.248 181.441 72.248C179.617 72.248 178.273 73.208 177.217 74.216L177.385 71.696V66.872H173.857V86ZM190.361 91.4C193.385 91.4 194.825 89.576 196.001 86.432L200.777 72.584H197.393L195.521 78.8C195.209 80.072 194.873 81.344 194.585 82.616H194.465C194.057 81.32 193.721 80.024 193.312 78.8L191.201 72.584H187.625L192.857 85.76L192.641 86.552C192.233 87.752 191.465 88.616 190.121 88.616C189.785 88.616 189.425 88.496 189.185 88.424L188.537 91.136C189.041 91.304 189.593 91.4 190.361 91.4Z" fill="black"/>
<path d="M619 104H445V48H619V104Z" fill="#EAF3FE"/>
<path d="M619 104H445V48H619V104Z" stroke="black"/>
<path d="M470.408 86.336C472.712 86.336 474.608 85.448 476.072 83.744L474.2 81.512C473.264 82.544 472.064 83.264 470.552 83.264C467.72 83.264 465.92 80.96 465.92 77.072C465.92 73.28 467.936 70.976 470.6 70.976C471.968 70.976 472.976 71.576 473.888 72.464L475.76 70.184C474.608 68.984 472.808 67.928 470.552 67.928C466.04 67.928 462.296 71.336 462.296 77.192C462.296 83.12 465.92 86.336 470.408 86.336ZM484.262 86.336C487.622 86.336 490.694 83.744 490.694 79.304C490.694 74.84 487.622 72.248 484.262 72.248C480.878 72.248 477.806 74.84 477.806 79.304C477.806 83.744 480.878 86.336 484.262 86.336ZM484.262 83.48C482.414 83.48 481.406 81.824 481.406 79.304C481.406 76.76 482.414 75.128 484.262 75.128C486.086 75.128 487.094 76.76 487.094 79.304C487.094 81.824 486.086 83.48 484.262 83.48ZM496.981 86.336C497.821 86.336 498.373 86.192 498.781 86.048L498.349 83.432C498.109 83.48 498.013 83.48 497.893 83.48C497.557 83.48 497.197 83.216 497.197 82.376V66.872H493.669V82.232C493.669 84.728 494.509 86.336 496.981 86.336ZM506.856 86.336C510.216 86.336 513.288 83.744 513.288 79.304C513.288 74.84 510.216 72.248 506.856 72.248C503.472 72.248 500.4 74.84 500.4 79.304C500.4 83.744 503.472 86.336 506.856 86.336ZM506.856 83.48C505.008 83.48 504 81.824 504 79.304C504 76.76 505.008 75.128 506.856 75.128C508.68 75.128 509.688 76.76 509.688 79.304C509.688 81.824 508.68 83.48 506.856 83.48ZM516.263 86H519.791V78.008C520.535 76.064 521.807 75.344 522.839 75.344C523.415 75.344 523.775 75.44 524.255 75.56L524.855 72.536C524.447 72.344 524.015 72.248 523.295 72.248C521.903 72.248 520.439 73.184 519.479 74.96H519.407L519.119 72.584H516.263V86Z" fill="black"/>
<path d="M1119 104H945V48H1119V104Z" fill="#EAF3FE"/>
<path d="M1119 104H945V48H1119V104Z" stroke="black"/>
<path d="M963.184 86V68.216H966.736V86H963.184ZM976.53 86.336C972.81 86.336 969.978 83.744 969.978 79.28C969.978 74.816 973.194 72.224 976.842 72.224C978.498 72.224 979.77 72.872 980.754 73.712L979.074 75.992C978.402 75.416 977.778 75.104 977.034 75.104C974.97 75.104 973.578 76.76 973.578 79.28C973.578 81.824 974.994 83.456 976.914 83.456C977.874 83.456 978.786 83 979.53 82.376L980.946 84.704C979.65 85.832 978.018 86.336 976.53 86.336ZM988.364 86.336C985.004 86.336 981.908 83.744 981.908 79.28C981.908 74.816 985.004 72.224 988.364 72.224C991.724 72.224 994.82 74.816 994.82 79.28C994.82 83.744 991.724 86.336 988.364 86.336ZM988.364 83.456C990.188 83.456 991.22 81.824 991.22 79.28C991.22 76.76 990.188 75.104 988.364 75.104C986.54 75.104 985.508 76.76 985.508 79.28C985.508 81.824 986.54 83.456 988.364 83.456ZM997.771 86V72.56H1000.65L1000.92 74.336H1000.99C1002.16 73.184 1003.53 72.224 1005.36 72.224C1008.26 72.224 1009.51 74.24 1009.51 77.624V86H1005.98V78.056C1005.98 75.968 1005.4 75.248 1004.08 75.248C1002.98 75.248 1002.28 75.776 1001.3 76.76V86H997.771Z" fill="black"/>
<rect x="605" y="150" width="64" height="64" fill="#DADADA"/>
<path d="M608.97 231.14C609.97 231.14 610.81 230.77 611.3 230.27V227.08H608.79V228.04H610.24V229.76C609.99 229.99 609.54 230.12 609.09 230.12C607.57 230.12 606.76 229.05 606.76 227.3C606.76 225.58 607.66 224.52 609.04 224.52C609.74 224.52 610.19 224.81 610.56 225.18L611.19 224.43C610.74 223.97 610.04 223.51 609 223.51C607.05 223.51 605.56 224.94 605.56 227.34C605.56 229.76 607.01 231.14 608.97 231.14ZM612.872 231H614.032V227.58C614.372 226.71 614.912 226.39 615.352 226.39C615.582 226.39 615.722 226.42 615.912 226.48L616.112 225.48C615.942 225.4 615.772 225.36 615.502 225.36C614.912 225.36 614.332 225.78 613.942 226.49H613.912L613.812 225.5H612.872V231ZM617.941 231.14C618.601 231.14 619.191 230.81 619.691 230.38H619.731L619.821 231H620.771V227.7C620.771 226.23 620.141 225.36 618.771 225.36C617.891 225.36 617.111 225.73 616.551 226.08L616.981 226.87C617.441 226.57 617.991 226.3 618.571 226.3C619.371 226.3 619.601 226.86 619.611 227.5C617.331 227.75 616.331 228.36 616.331 229.54C616.331 230.51 617.001 231.14 617.941 231.14ZM618.301 230.22C617.811 230.22 617.441 230 617.441 229.46C617.441 228.84 617.981 228.43 619.611 228.24V229.58C619.161 230 618.781 230.22 618.301 230.22ZM622.653 233.3C623.813 233.3 624.393 232.51 624.823 231.34L626.843 225.5H625.723L624.833 228.33C624.693 228.84 624.543 229.38 624.413 229.89H624.363C624.183 229.37 624.023 228.82 623.853 228.33L622.843 225.5H621.663L623.843 230.96L623.733 231.34C623.533 231.93 623.173 232.37 622.583 232.37C622.443 232.37 622.283 232.33 622.183 232.29L621.963 233.19C622.153 233.26 622.373 233.3 622.653 233.3Z" fill="black"/>
<rect x="685" y="150" width="64" height="64" fill="#F2F4F6"/>
<path d="M685.96 231H690.25V230.02H687.13V223.64H685.96V231ZM691.436 231H692.596V225.5H691.436V231ZM692.016 224.47C692.436 224.47 692.736 224.2 692.736 223.78C692.736 223.37 692.436 223.1 692.016 223.1C691.586 223.1 691.306 223.37 691.306 223.78C691.306 224.2 691.586 224.47 692.016 224.47ZM696.207 233.47C697.967 233.47 699.087 232.61 699.087 231.55C699.087 230.61 698.407 230.21 697.107 230.21H696.087C695.397 230.21 695.167 230 695.167 229.68C695.167 229.41 695.297 229.25 695.467 229.1C695.717 229.21 695.997 229.26 696.237 229.26C697.397 229.26 698.307 228.58 698.307 227.37C698.307 226.95 698.157 226.59 697.947 226.37H698.987V225.5H697.047C696.837 225.42 696.557 225.36 696.237 225.36C695.107 225.36 694.107 226.09 694.107 227.34C694.107 227.99 694.467 228.52 694.837 228.8V228.84C694.527 229.06 694.227 229.43 694.227 229.86C694.227 230.31 694.437 230.6 694.727 230.78V230.83C694.217 231.13 693.927 231.56 693.927 232.03C693.927 232.98 694.887 233.47 696.207 233.47ZM696.237 228.52C695.677 228.52 695.207 228.07 695.207 227.34C695.207 226.6 695.667 226.18 696.237 226.18C696.817 226.18 697.277 226.6 697.277 227.34C697.277 228.07 696.807 228.52 696.237 228.52ZM696.377 232.71C695.467 232.71 694.907 232.39 694.907 231.86C694.907 231.58 695.047 231.3 695.377 231.05C695.607 231.11 695.847 231.13 696.107 231.13H696.937C697.607 231.13 697.967 231.28 697.967 231.74C697.967 232.24 697.337 232.71 696.377 232.71ZM700.098 231H701.258V227.1C701.738 226.62 702.088 226.36 702.598 226.36C703.238 226.36 703.518 226.73 703.518 227.69V231H704.678V227.54C704.678 226.15 704.158 225.36 702.988 225.36C702.238 225.36 701.678 225.77 701.208 226.23L701.258 225.14V223.04H700.098V231ZM708.159 231.14C708.569 231.14 708.939 231.03 709.249 230.93L709.039 230.08C708.869 230.15 708.639 230.22 708.449 230.22C707.879 230.22 707.639 229.87 707.639 229.22V226.42H709.079V225.5H707.639V223.98H706.679L706.549 225.5L705.689 225.56V226.42H706.489V229.21C706.489 230.36 706.929 231.14 708.159 231.14ZM713.384 231.14C714.384 231.14 715.224 230.77 715.714 230.27V227.08H713.204V228.04H714.654V229.76C714.404 229.99 713.954 230.12 713.504 230.12C711.984 230.12 711.174 229.05 711.174 227.3C711.174 225.58 712.074 224.52 713.454 224.52C714.154 224.52 714.604 224.81 714.974 225.18L715.604 224.43C715.154 223.97 714.454 223.51 713.414 223.51C711.464 223.51 709.974 224.94 709.974 227.34C709.974 229.76 711.424 231.14 713.384 231.14ZM717.286 231H718.446V227.58C718.786 226.71 719.326 226.39 719.766 226.39C719.996 226.39 720.136 226.42 720.326 226.48L720.526 225.48C720.356 225.4 720.186 225.36 719.916 225.36C719.326 225.36 718.746 225.78 718.356 226.49H718.326L718.226 225.5H717.286V231ZM722.355 231.14C723.015 231.14 723.605 230.81 724.105 230.38H724.145L724.235 231H725.185V227.7C725.185 226.23 724.555 225.36 723.185 225.36C722.305 225.36 721.525 225.73 720.965 226.08L721.395 226.87C721.855 226.57 722.405 226.3 722.985 226.3C723.785 226.3 724.015 226.86 724.025 227.5C721.745 227.75 720.745 228.36 720.745 229.54C720.745 230.51 721.415 231.14 722.355 231.14ZM722.715 230.22C722.225 230.22 721.855 230 721.855 229.46C721.855 228.84 722.395 228.43 724.025 228.24V229.58C723.575 230 723.195 230.22 722.715 230.22ZM727.067 233.3C728.227 233.3 728.807 232.51 729.237 231.34L731.257 225.5H730.137L729.247 228.33C729.107 228.84 728.957 229.38 728.827 229.89H728.777C728.597 229.37 728.437 228.82 728.267 228.33L727.257 225.5H726.077L728.257 230.96L728.147 231.34C727.947 231.93 727.587 232.37 726.997 232.37C726.857 232.37 726.697 232.33 726.597 232.29L726.377 233.19C726.567 233.26 726.787 233.3 727.067 233.3Z" fill="black"/>
<rect x="765.5" y="150.5" width="63" height="63" fill="white" stroke="black"/>
<path d="M766.72 231H768.13L769.1 226.91C769.21 226.34 769.34 225.79 769.45 225.23H769.49C769.59 225.79 769.7 226.34 769.83 226.91L770.81 231H772.25L773.7 223.64H772.59L771.89 227.47C771.77 228.25 771.64 229.04 771.52 229.84H771.47C771.29 229.04 771.14 228.24 770.96 227.47L770.01 223.64H768.98L768.04 227.47C767.87 228.25 767.7 229.04 767.54 229.84H767.5C767.37 229.04 767.24 228.25 767.1 227.47L766.42 223.64H765.22L766.72 231ZM774.796 231H775.956V227.1C776.436 226.62 776.786 226.36 777.296 226.36C777.936 226.36 778.216 226.73 778.216 227.69V231H779.376V227.54C779.376 226.15 778.856 225.36 777.686 225.36C776.936 225.36 776.376 225.77 775.906 226.23L775.956 225.14V223.04H774.796V231ZM781.006 231H782.166V225.5H781.006V231ZM781.586 224.47C782.006 224.47 782.306 224.2 782.306 223.78C782.306 223.37 782.006 223.1 781.586 223.1C781.156 223.1 780.876 223.37 780.876 223.78C780.876 224.2 781.156 224.47 781.586 224.47ZM785.737 231.14C786.147 231.14 786.517 231.03 786.827 230.93L786.617 230.08C786.447 230.15 786.217 230.22 786.027 230.22C785.457 230.22 785.217 229.87 785.217 229.22V226.42H786.657V225.5H785.217V223.98H784.257L784.127 225.5L783.267 225.56V226.42H784.067V229.21C784.067 230.36 784.507 231.14 785.737 231.14ZM789.947 231.14C790.667 231.14 791.297 230.9 791.807 230.56L791.407 229.82C790.997 230.08 790.587 230.23 790.097 230.23C789.147 230.23 788.487 229.61 788.397 228.56H791.967C791.997 228.42 792.017 228.2 792.017 227.97C792.017 226.41 791.227 225.36 789.777 225.36C788.497 225.36 787.267 226.47 787.267 228.26C787.267 230.07 788.447 231.14 789.947 231.14ZM788.377 227.76C788.497 226.8 789.107 226.27 789.797 226.27C790.597 226.27 791.017 226.81 791.017 227.76H788.377Z" fill="black"/>
<path d="M845 150H909V214H845V150Z" fill="#222222"/>
<path d="M845.96 231H848.43C850.06 231 851.24 230.3 851.24 228.84C851.24 227.85 850.64 227.27 849.8 227.09V227.05C850.46 226.82 850.84 226.16 850.84 225.45C850.84 224.12 849.75 223.64 848.25 223.64H845.96V231ZM847.13 226.71V224.55H848.15C849.18 224.55 849.7 224.84 849.7 225.61C849.7 226.29 849.24 226.71 848.12 226.71H847.13ZM847.13 230.09V227.59H848.3C849.47 227.59 850.1 227.96 850.1 228.79C850.1 229.68 849.44 230.09 848.3 230.09H847.13ZM853.68 231.14C853.97 231.14 854.15 231.09 854.3 231.04L854.15 230.17C854.05 230.19 854.01 230.19 853.96 230.19C853.82 230.19 853.69 230.08 853.69 229.77V223.04H852.53V229.71C852.53 230.6 852.84 231.14 853.68 231.14ZM856.808 231.14C857.468 231.14 858.058 230.81 858.558 230.38H858.598L858.688 231H859.638V227.7C859.638 226.23 859.008 225.36 857.638 225.36C856.758 225.36 855.978 225.73 855.418 226.08L855.848 226.87C856.308 226.57 856.858 226.3 857.438 226.3C858.238 226.3 858.468 226.86 858.478 227.5C856.198 227.75 855.198 228.36 855.198 229.54C855.198 230.51 855.868 231.14 856.808 231.14ZM857.168 230.22C856.678 230.22 856.308 230 856.308 229.46C856.308 228.84 856.848 228.43 858.478 228.24V229.58C858.028 230 857.648 230.22 857.168 230.22ZM863.5 231.14C864.14 231.14 864.79 230.9 865.29 230.46L864.82 229.69C864.49 229.97 864.08 230.19 863.62 230.19C862.7 230.19 862.07 229.42 862.07 228.26C862.07 227.09 862.72 226.32 863.66 226.32C864.03 226.32 864.34 226.48 864.64 226.74L865.2 226C864.81 225.64 864.3 225.36 863.6 225.36C862.15 225.36 860.88 226.42 860.88 228.26C860.88 230.08 862.02 231.14 863.5 231.14ZM866.426 231H867.566V229.58L868.476 228.51L869.966 231H871.226L869.156 227.74L871.016 225.5H869.736L867.606 228.16H867.566V223.04H866.426V231Z" fill="black"/>
<rect x="525" y="150" width="64" height="64" fill="#E84118"/>
<path d="M525.96 231H527.13V228.03H528.37C529.89 228.03 531.03 227.32 531.03 225.78C531.03 224.18 529.89 223.64 528.37 223.64H525.96V231ZM527.13 227.1V224.58H528.24C529.3 224.58 529.88 224.89 529.88 225.78C529.88 226.66 529.3 227.1 528.24 227.1H527.13ZM529.99 231H531.29L529.01 227.05L528.15 227.73L529.99 231ZM534.566 231.14C535.286 231.14 535.916 230.9 536.426 230.56L536.026 229.82C535.616 230.08 535.206 230.23 534.716 230.23C533.766 230.23 533.106 229.61 533.016 228.56H536.586C536.616 228.42 536.636 228.2 536.636 227.97C536.636 226.41 535.846 225.36 534.396 225.36C533.116 225.36 531.886 226.47 531.886 228.26C531.886 230.07 533.066 231.14 534.566 231.14ZM532.996 227.76C533.116 226.8 533.726 226.27 534.416 226.27C535.216 226.27 535.636 226.81 535.636 227.76H532.996ZM539.83 231.14C540.45 231.14 541.02 230.81 541.44 230.39H541.47L541.56 231H542.51V223.04H541.35V225.07L541.4 225.98C540.96 225.6 540.55 225.36 539.92 225.36C538.7 225.36 537.57 226.47 537.57 228.26C537.57 230.08 538.45 231.14 539.83 231.14ZM540.11 230.18C539.25 230.18 538.76 229.49 538.76 228.24C538.76 227.06 539.38 226.32 540.15 226.32C540.56 226.32 540.95 226.46 541.35 226.83V229.51C540.96 229.97 540.56 230.18 540.11 230.18Z" fill="black"/>
<rect x="445" y="149" width="64" height="64" fill="#4880EE"/>
<path d="M445.96 230H447.13V227.21H448.24C449.84 227.21 451.01 226.48 451.01 224.87C451.01 223.2 449.84 222.64 448.2 222.64H445.96V230ZM447.13 226.28V223.58H448.08C449.26 223.58 449.86 223.89 449.86 224.87C449.86 225.83 449.3 226.28 448.13 226.28H447.13ZM452.344 230H453.504V226.58C453.844 225.71 454.384 225.39 454.824 225.39C455.054 225.39 455.194 225.42 455.384 225.48L455.584 224.48C455.414 224.4 455.244 224.36 454.974 224.36C454.384 224.36 453.804 224.78 453.414 225.49H453.384L453.284 224.5H452.344V230ZM456.436 230H457.596V224.5H456.436V230ZM457.016 223.47C457.436 223.47 457.736 223.2 457.736 222.78C457.736 222.37 457.436 222.1 457.016 222.1C456.586 222.1 456.306 222.37 456.306 222.78C456.306 223.2 456.586 223.47 457.016 223.47ZM459.317 230H460.477V226.1C460.917 225.6 461.337 225.36 461.707 225.36C462.337 225.36 462.627 225.73 462.627 226.69V230H463.777V226.1C464.237 225.6 464.637 225.36 465.017 225.36C465.637 225.36 465.927 225.73 465.927 226.69V230H467.077V226.54C467.077 225.15 466.547 224.36 465.397 224.36C464.707 224.36 464.147 224.8 463.597 225.37C463.367 224.74 462.907 224.36 462.087 224.36C461.407 224.36 460.857 224.77 460.387 225.27H460.357L460.257 224.5H459.317V230ZM470.051 230.14C470.711 230.14 471.301 229.81 471.801 229.38H471.841L471.931 230H472.881V226.7C472.881 225.23 472.251 224.36 470.881 224.36C470.001 224.36 469.221 224.73 468.661 225.08L469.091 225.87C469.551 225.57 470.101 225.3 470.681 225.3C471.481 225.3 471.711 225.86 471.721 226.5C469.441 226.75 468.441 227.36 468.441 228.54C468.441 229.51 469.111 230.14 470.051 230.14ZM470.411 229.22C469.921 229.22 469.551 229 469.551 228.46C469.551 227.84 470.091 227.43 471.721 227.24V228.58C471.271 229 470.891 229.22 470.411 229.22ZM474.503 230H475.663V226.58C476.003 225.71 476.543 225.39 476.983 225.39C477.213 225.39 477.353 225.42 477.543 225.48L477.743 224.48C477.573 224.4 477.403 224.36 477.133 224.36C476.543 224.36 475.963 224.78 475.573 225.49H475.543L475.443 224.5H474.503V230ZM479.04 232.3C480.2 232.3 480.78 231.51 481.21 230.34L483.23 224.5H482.11L481.22 227.33C481.08 227.84 480.93 228.38 480.8 228.89H480.75C480.57 228.37 480.41 227.82 480.24 227.33L479.23 224.5H478.05L480.23 229.96L480.12 230.34C479.92 230.93 479.56 231.37 478.97 231.37C478.83 231.37 478.67 231.33 478.57 231.29L478.35 232.19C478.54 232.26 478.76 232.3 479.04 232.3Z" fill="black"/>
<path d="M445.96 144H447.13V141.21H448.24C449.84 141.21 451.01 140.48 451.01 138.87C451.01 137.2 449.84 136.64 448.2 136.64H445.96V144ZM447.13 140.28V137.58H448.08C449.26 137.58 449.86 137.89 449.86 138.87C449.86 139.83 449.3 140.28 448.13 140.28H447.13ZM453.156 144.14C453.816 144.14 454.406 143.81 454.906 143.38H454.946L455.036 144H455.986V140.7C455.986 139.23 455.356 138.36 453.986 138.36C453.106 138.36 452.326 138.73 451.766 139.08L452.196 139.87C452.656 139.57 453.206 139.3 453.786 139.3C454.586 139.3 454.816 139.86 454.826 140.5C452.546 140.75 451.546 141.36 451.546 142.54C451.546 143.51 452.216 144.14 453.156 144.14ZM453.516 143.22C453.026 143.22 452.656 143 452.656 142.46C452.656 141.84 453.196 141.43 454.826 141.24V142.58C454.376 143 453.996 143.22 453.516 143.22ZM458.758 144.14C459.048 144.14 459.228 144.09 459.378 144.04L459.228 143.17C459.128 143.19 459.088 143.19 459.038 143.19C458.898 143.19 458.768 143.08 458.768 142.77V136.04H457.608V142.71C457.608 143.6 457.918 144.14 458.758 144.14ZM462.887 144.14C463.607 144.14 464.237 143.9 464.747 143.56L464.347 142.82C463.937 143.08 463.527 143.23 463.037 143.23C462.087 143.23 461.427 142.61 461.337 141.56H464.907C464.937 141.42 464.957 141.2 464.957 140.97C464.957 139.41 464.167 138.36 462.717 138.36C461.437 138.36 460.207 139.47 460.207 141.26C460.207 143.07 461.387 144.14 462.887 144.14ZM461.317 140.76C461.437 139.8 462.047 139.27 462.737 139.27C463.537 139.27 463.957 139.81 463.957 140.76H461.317ZM467.944 144.14C468.354 144.14 468.724 144.03 469.034 143.93L468.824 143.08C468.654 143.15 468.424 143.22 468.234 143.22C467.664 143.22 467.424 142.87 467.424 142.22V139.42H468.864V138.5H467.424V136.98H466.464L466.334 138.5L465.474 138.56V139.42H466.274V142.21C466.274 143.36 466.714 144.14 467.944 144.14ZM471.636 144.14C472.046 144.14 472.416 144.03 472.726 143.93L472.516 143.08C472.346 143.15 472.116 143.22 471.926 143.22C471.356 143.22 471.116 142.87 471.116 142.22V139.42H472.556V138.5H471.116V136.98H470.156L470.026 138.5L469.166 138.56V139.42H469.966V142.21C469.966 143.36 470.406 144.14 471.636 144.14ZM475.846 144.14C476.566 144.14 477.196 143.9 477.706 143.56L477.306 142.82C476.896 143.08 476.486 143.23 475.996 143.23C475.046 143.23 474.386 142.61 474.296 141.56H477.866C477.896 141.42 477.916 141.2 477.916 140.97C477.916 139.41 477.126 138.36 475.676 138.36C474.396 138.36 473.166 139.47 473.166 141.26C473.166 143.07 474.346 144.14 475.846 144.14ZM474.276 140.76C474.396 139.8 475.006 139.27 475.696 139.27C476.496 139.27 476.916 139.81 476.916 140.76H474.276Z" fill="black"/>
<rect x="525" y="271" width="64" height="64" fill="#6D7582"/>
<path d="M528.07 352.14C529.68 352.14 530.66 351.17 530.66 349.99C530.66 348.91 530.03 348.37 529.16 348L528.15 347.58C527.55 347.33 526.96 347.09 526.96 346.46C526.96 345.88 527.44 345.52 528.19 345.52C528.84 345.52 529.36 345.77 529.82 346.17L530.42 345.44C529.87 344.87 529.06 344.51 528.19 344.51C526.79 344.51 525.78 345.38 525.78 346.54C525.78 347.61 526.56 348.17 527.27 348.46L528.29 348.91C528.97 349.2 529.47 349.41 529.47 350.08C529.47 350.71 528.97 351.12 528.09 351.12C527.38 351.12 526.65 350.78 526.13 350.25L525.45 351.06C526.12 351.74 527.05 352.14 528.07 352.14ZM534.244 352.14C534.964 352.14 535.594 351.9 536.104 351.56L535.704 350.82C535.294 351.08 534.884 351.23 534.394 351.23C533.444 351.23 532.784 350.61 532.694 349.56H536.264C536.294 349.42 536.314 349.2 536.314 348.97C536.314 347.41 535.524 346.36 534.074 346.36C532.794 346.36 531.564 347.47 531.564 349.26C531.564 351.07 532.744 352.14 534.244 352.14ZM532.674 348.76C532.794 347.8 533.404 347.27 534.094 347.27C534.894 347.27 535.314 347.81 535.314 348.76H532.674ZM539.848 352.14C540.488 352.14 541.138 351.9 541.638 351.46L541.168 350.69C540.838 350.97 540.428 351.19 539.968 351.19C539.048 351.19 538.418 350.42 538.418 349.26C538.418 348.09 539.068 347.32 540.008 347.32C540.378 347.32 540.688 347.48 540.988 347.74L541.548 347C541.158 346.64 540.648 346.36 539.948 346.36C538.498 346.36 537.228 347.42 537.228 349.26C537.228 351.08 538.368 352.14 539.848 352.14ZM544.681 352.14C546.041 352.14 547.271 351.08 547.271 349.26C547.271 347.42 546.041 346.36 544.681 346.36C543.311 346.36 542.091 347.42 542.091 349.26C542.091 351.08 543.311 352.14 544.681 352.14ZM544.681 351.19C543.811 351.19 543.281 350.42 543.281 349.26C543.281 348.09 543.811 347.32 544.681 347.32C545.541 347.32 546.091 348.09 546.091 349.26C546.091 350.42 545.541 351.19 544.681 351.19ZM548.624 352H549.784V348.1C550.264 347.62 550.614 347.36 551.124 347.36C551.764 347.36 552.044 347.73 552.044 348.69V352H553.204V348.54C553.204 347.15 552.684 346.36 551.514 346.36C550.764 346.36 550.194 346.77 549.694 347.27H549.664L549.564 346.5H548.624V352ZM556.764 352.14C557.384 352.14 557.954 351.81 558.374 351.39H558.404L558.494 352H559.444V344.04H558.284V346.07L558.334 346.98C557.894 346.6 557.484 346.36 556.854 346.36C555.634 346.36 554.504 347.47 554.504 349.26C554.504 351.08 555.384 352.14 556.764 352.14ZM557.044 351.18C556.184 351.18 555.694 350.49 555.694 349.24C555.694 348.06 556.314 347.32 557.084 347.32C557.494 347.32 557.884 347.46 558.284 347.83V350.51C557.894 350.97 557.494 351.18 557.044 351.18ZM562.463 352.14C563.123 352.14 563.713 351.81 564.213 351.38H564.253L564.343 352H565.293V348.7C565.293 347.23 564.663 346.36 563.293 346.36C562.413 346.36 561.633 346.73 561.073 347.08L561.503 347.87C561.963 347.57 562.513 347.3 563.093 347.3C563.893 347.3 564.123 347.86 564.133 348.5C561.853 348.75 560.853 349.36 560.853 350.54C560.853 351.51 561.523 352.14 562.463 352.14ZM562.823 351.22C562.333 351.22 561.963 351 561.963 350.46C561.963 349.84 562.503 349.43 564.133 349.24V350.58C563.683 351 563.303 351.22 562.823 351.22ZM566.915 352H568.075V348.58C568.415 347.71 568.955 347.39 569.395 347.39C569.625 347.39 569.765 347.42 569.955 347.48L570.155 346.48C569.985 346.4 569.815 346.36 569.545 346.36C568.955 346.36 568.375 346.78 567.985 347.49H567.955L567.855 346.5H566.915V352ZM571.452 354.3C572.612 354.3 573.192 353.51 573.622 352.34L575.642 346.5H574.522L573.632 349.33C573.492 349.84 573.342 350.38 573.212 350.89H573.162C572.982 350.37 572.822 349.82 572.652 349.33L571.642 346.5H570.462L572.642 351.96L572.532 352.34C572.332 352.93 571.972 353.37 571.382 353.37C571.242 353.37 571.082 353.33 570.982 353.29L570.762 354.19C570.952 354.26 571.172 354.3 571.452 354.3Z" fill="black"/>
<rect x="605" y="271" width="64" height="64" fill="#8D94A0"/>
<path d="M608.07 352.14C609.68 352.14 610.66 351.17 610.66 349.99C610.66 348.91 610.03 348.37 609.16 348L608.15 347.58C607.55 347.33 606.96 347.09 606.96 346.46C606.96 345.88 607.44 345.52 608.19 345.52C608.84 345.52 609.36 345.77 609.82 346.17L610.42 345.44C609.87 344.87 609.06 344.51 608.19 344.51C606.79 344.51 605.78 345.38 605.78 346.54C605.78 347.61 606.56 348.17 607.27 348.46L608.29 348.91C608.97 349.2 609.47 349.41 609.47 350.08C609.47 350.71 608.97 351.12 608.09 351.12C607.38 351.12 606.65 350.78 606.13 350.25L605.45 351.06C606.12 351.74 607.05 352.14 608.07 352.14ZM613.564 352.14C614.324 352.14 614.854 351.75 615.354 351.17H615.384L615.474 352H616.424V346.5H615.274V350.32C614.814 350.9 614.464 351.14 613.954 351.14C613.304 351.14 613.024 350.77 613.024 349.82V346.5H611.874V349.96C611.874 351.36 612.394 352.14 613.564 352.14ZM620.715 352.14C621.955 352.14 623.085 351.05 623.085 349.16C623.085 347.47 622.295 346.36 620.905 346.36C620.315 346.36 619.735 346.67 619.255 347.08L619.305 346.14V344.04H618.145V352H619.055L619.155 351.43H619.195C619.655 351.88 620.215 352.14 620.715 352.14ZM620.495 351.18C620.155 351.18 619.715 351.05 619.305 350.68V347.99C619.755 347.55 620.175 347.32 620.595 347.32C621.515 347.32 621.895 348.03 621.895 349.18C621.895 350.47 621.285 351.18 620.495 351.18ZM626.021 352.14C626.431 352.14 626.801 352.03 627.111 351.93L626.901 351.08C626.731 351.15 626.501 351.22 626.311 351.22C625.741 351.22 625.501 350.87 625.501 350.22V347.42H626.941V346.5H625.501V344.98H624.541L624.411 346.5L623.551 346.56V347.42H624.351V350.21C624.351 351.36 624.791 352.14 626.021 352.14ZM628.135 352H629.295V346.5H628.135V352ZM628.715 345.47C629.135 345.47 629.435 345.2 629.435 344.78C629.435 344.37 629.135 344.1 628.715 344.1C628.285 344.1 628.005 344.37 628.005 344.78C628.005 345.2 628.285 345.47 628.715 345.47ZM632.866 352.14C633.276 352.14 633.646 352.03 633.956 351.93L633.746 351.08C633.576 351.15 633.346 351.22 633.156 351.22C632.586 351.22 632.346 350.87 632.346 350.22V347.42H633.786V346.5H632.346V344.98H631.386L631.256 346.5L630.396 346.56V347.42H631.196V350.21C631.196 351.36 631.636 352.14 632.866 352.14ZM636.131 352.14C636.421 352.14 636.601 352.09 636.751 352.04L636.601 351.17C636.501 351.19 636.461 351.19 636.411 351.19C636.271 351.19 636.141 351.08 636.141 350.77V344.04H634.981V350.71C634.981 351.6 635.291 352.14 636.131 352.14ZM640.26 352.14C640.98 352.14 641.61 351.9 642.12 351.56L641.72 350.82C641.31 351.08 640.9 351.23 640.41 351.23C639.46 351.23 638.8 350.61 638.71 349.56H642.28C642.31 349.42 642.33 349.2 642.33 348.97C642.33 347.41 641.54 346.36 640.09 346.36C638.81 346.36 637.58 347.47 637.58 349.26C637.58 351.07 638.76 352.14 640.26 352.14ZM638.69 348.76C638.81 347.8 639.42 347.27 640.11 347.27C640.91 347.27 641.33 347.81 641.33 348.76H638.69Z" fill="black"/>
<rect x="445" y="271" width="64" height="64" fill="#353C49"/>
<path d="M445.96 352H447.13V349.21H448.24C449.84 349.21 451.01 348.48 451.01 346.87C451.01 345.2 449.84 344.64 448.2 344.64H445.96V352ZM447.13 348.28V345.58H448.08C449.26 345.58 449.86 345.89 449.86 346.87C449.86 347.83 449.3 348.28 448.13 348.28H447.13ZM452.344 352H453.504V348.58C453.844 347.71 454.384 347.39 454.824 347.39C455.054 347.39 455.194 347.42 455.384 347.48L455.584 346.48C455.414 346.4 455.244 346.36 454.974 346.36C454.384 346.36 453.804 346.78 453.414 347.49H453.384L453.284 346.5H452.344V352ZM456.436 352H457.596V346.5H456.436V352ZM457.016 345.47C457.436 345.47 457.736 345.2 457.736 344.78C457.736 344.37 457.436 344.1 457.016 344.1C456.586 344.1 456.306 344.37 456.306 344.78C456.306 345.2 456.586 345.47 457.016 345.47ZM459.317 352H460.477V348.1C460.917 347.6 461.337 347.36 461.707 347.36C462.337 347.36 462.627 347.73 462.627 348.69V352H463.777V348.1C464.237 347.6 464.637 347.36 465.017 347.36C465.637 347.36 465.927 347.73 465.927 348.69V352H467.077V348.54C467.077 347.15 466.547 346.36 465.397 346.36C464.707 346.36 464.147 346.8 463.597 347.37C463.367 346.74 462.907 346.36 462.087 346.36C461.407 346.36 460.857 346.77 460.387 347.27H460.357L460.257 346.5H459.317V352ZM470.051 352.14C470.711 352.14 471.301 351.81 471.801 351.38H471.841L471.931 352H472.881V348.7C472.881 347.23 472.251 346.36 470.881 346.36C470.001 346.36 469.221 346.73 468.661 347.08L469.091 347.87C469.551 347.57 470.101 347.3 470.681 347.3C471.481 347.3 471.711 347.86 471.721 348.5C469.441 348.75 468.441 349.36 468.441 350.54C468.441 351.51 469.111 352.14 470.051 352.14ZM470.411 351.22C469.921 351.22 469.551 351 469.551 350.46C469.551 349.84 470.091 349.43 471.721 349.24V350.58C471.271 351 470.891 351.22 470.411 351.22ZM474.503 352H475.663V348.58C476.003 347.71 476.543 347.39 476.983 347.39C477.213 347.39 477.353 347.42 477.543 347.48L477.743 346.48C477.573 346.4 477.403 346.36 477.133 346.36C476.543 346.36 475.963 346.78 475.573 347.49H475.543L475.443 346.5H474.503V352ZM479.04 354.3C480.2 354.3 480.78 353.51 481.21 352.34L483.23 346.5H482.11L481.22 349.33C481.08 349.84 480.93 350.38 480.8 350.89H480.75C480.57 350.37 480.41 349.82 480.24 349.33L479.23 346.5H478.05L480.23 351.96L480.12 352.34C479.92 352.93 479.56 353.37 478.97 353.37C478.83 353.37 478.67 353.33 478.57 353.29L478.35 354.19C478.54 354.26 478.76 354.3 479.04 354.3Z" fill="black"/>
<path d="M447.46 265H448.63V258.62H450.79V257.64H445.3V258.62H447.46V265ZM453.453 265.14C454.173 265.14 454.803 264.9 455.313 264.56L454.913 263.82C454.503 264.08 454.093 264.23 453.603 264.23C452.653 264.23 451.993 263.61 451.903 262.56H455.473C455.503 262.42 455.523 262.2 455.523 261.97C455.523 260.41 454.733 259.36 453.283 259.36C452.003 259.36 450.773 260.47 450.773 262.26C450.773 264.07 451.953 265.14 453.453 265.14ZM451.883 261.76C452.003 260.8 452.613 260.27 453.303 260.27C454.103 260.27 454.523 260.81 454.523 261.76H451.883ZM455.961 265H457.171L457.801 263.84C457.981 263.51 458.141 263.18 458.321 262.87H458.371C458.561 263.18 458.761 263.51 458.941 263.84L459.661 265H460.911L459.141 262.26L460.781 259.5H459.581L459.011 260.6C458.851 260.92 458.701 261.22 458.551 261.53H458.511C458.331 261.22 458.151 260.92 457.991 260.6L457.331 259.5H456.091L457.731 262.14L455.961 265ZM463.462 265.14C463.872 265.14 464.242 265.03 464.552 264.93L464.342 264.08C464.172 264.15 463.942 264.22 463.752 264.22C463.182 264.22 462.942 263.87 462.942 263.22V260.42H464.382V259.5H462.942V257.98H461.982L461.852 259.5L460.992 259.56V260.42H461.792V263.21C461.792 264.36 462.232 265.14 463.462 265.14Z" fill="black"/>
</svg>
