<svg width="115" height="48" viewBox="0 0 115 48" fill="none" xmlns="http://www.w3.org/2000/svg">
<rect width="115" height="48" rx="8" fill="#F2F4F6"/>
<path d="M24.128 18.472V19.88C24.128 22.008 22.896 23.976 20.592 24.792L21.472 26.12C24.064 25.16 25.504 22.744 25.504 19.88V18.472H24.128ZM24.448 18.472V20.024C24.448 22.616 25.888 24.824 28.368 25.704L29.248 24.392C27.056 23.672 25.808 21.912 25.808 20.024V18.472H24.448ZM30.464 17.704V26.472H32.144V17.704H30.464ZM31.68 21.304V22.696H34.208V21.304H31.68ZM27.44 26.84C24.416 26.84 22.56 27.848 22.56 29.576C22.56 31.304 24.416 32.312 27.44 32.312C30.448 32.312 32.304 31.304 32.304 29.576C32.304 27.848 30.448 26.84 27.44 26.84ZM27.44 28.152C29.472 28.152 30.64 28.648 30.64 29.576C30.64 30.504 29.472 31 27.44 31C25.408 31 24.224 30.504 24.224 29.576C24.224 28.648 25.408 28.152 27.44 28.152ZM41.1988 22.792V24.168H43.8388V22.792H41.1988ZM38.3028 19.032V21.672C38.3028 24.168 37.2948 26.776 35.2308 28.024L36.2548 29.288C38.4788 27.928 39.5988 24.84 39.5988 21.672V19.032H38.3028ZM38.6548 19.032V21.608C38.6548 24.584 39.6308 27.608 41.8228 28.968L42.7668 27.656C40.8148 26.424 39.9188 23.96 39.9188 21.608V19.032H38.6548ZM46.3348 17.704V32.328H47.9348V17.704H46.3348ZM43.3588 17.976V31.624H44.9268V17.976H43.3588ZM50.1735 29.16V30.536H63.4215V29.16H50.1735ZM55.9335 25.832V29.528H57.5975V25.832H55.9335ZM51.6455 18.696V26.232H61.8855V18.696H60.2215V21.144H53.3255V18.696H51.6455ZM53.3255 22.472H60.2215V24.872H53.3255V22.472ZM75.2763 17.704V32.328H76.9563V17.704H75.2763ZM70.9883 19.256V19.544C70.9883 23.448 69.2123 26.344 65.0043 28.376L65.8843 29.72C70.9083 27.272 72.6363 23.592 72.6363 19.256H70.9883ZM65.7243 19.256V20.6H71.7403V19.256H65.7243Z" fill="#6D7582"/>
<path d="M86 22L91 27L96 22L98 23L91 30L84 23L86 22Z" fill="#B1B8C0"/>
</svg>
