<svg width="1920" height="80" viewBox="0 0 1920 80" fill="none" xmlns="http://www.w3.org/2000/svg">
<rect width="1920" height="80" fill="white"/>
<path d="M169.408 46.336C171.712 46.336 173.608 45.448 175.072 43.744L173.2 41.512C172.264 42.544 171.064 43.264 169.552 43.264C166.72 43.264 164.92 40.96 164.92 37.072C164.92 33.28 166.936 30.976 169.6 30.976C170.968 30.976 171.976 31.576 172.888 32.464L174.76 30.184C173.608 28.984 171.808 27.928 169.552 27.928C165.04 27.928 161.296 31.336 161.296 37.192C161.296 43.12 164.92 46.336 169.408 46.336ZM177.934 46H189.094V43.024H181.486V38.296H187.702V35.296H181.486V31.192H188.83V28.24H177.934V46ZM192.7 46H196.252V39.304H198.868C202.588 39.304 205.54 37.576 205.54 33.616C205.54 29.536 202.588 28.24 198.868 28.24H192.7V46ZM196.252 36.496V31.072H198.532C200.836 31.072 202.084 31.72 202.084 33.616C202.084 35.512 200.836 36.496 198.532 36.496H196.252ZM202.348 46H206.308L200.692 36.16L198.22 38.392L202.348 46ZM212.001 46H215.553V31.192H220.569V28.24H206.985V31.192H212.001V46ZM223.473 46H227.025V28.24H223.473V46ZM238.619 46.336C240.923 46.336 242.819 45.448 244.283 43.744L242.411 41.512C241.475 42.544 240.275 43.264 238.763 43.264C235.931 43.264 234.131 40.96 234.131 37.072C234.131 33.28 236.147 30.976 238.811 30.976C240.179 30.976 241.187 31.576 242.099 32.464L243.971 30.184C242.819 28.984 241.019 27.928 238.763 27.928C234.251 27.928 230.507 31.336 230.507 37.192C230.507 43.12 234.131 46.336 238.619 46.336ZM253.123 46.336C257.827 46.336 261.043 42.832 261.043 37.048C261.043 31.288 257.827 27.928 253.123 27.928C248.395 27.928 245.179 31.264 245.179 37.048C245.179 42.832 248.395 46.336 253.123 46.336ZM253.123 43.264C250.459 43.264 248.803 40.84 248.803 37.048C248.803 33.256 250.459 30.976 253.123 30.976C255.763 30.976 257.443 33.256 257.443 37.048C257.443 40.84 255.763 43.264 253.123 43.264ZM269.84 46.336C273.92 46.336 276.344 43.864 276.344 40.96C276.344 38.416 274.928 37.024 272.792 36.136L270.464 35.176C268.952 34.576 267.68 34.096 267.68 32.824C267.68 31.672 268.664 30.976 270.224 30.976C271.688 30.976 272.864 31.504 274.016 32.44L275.792 30.208C274.352 28.744 272.288 27.928 270.224 27.928C266.648 27.928 264.08 30.16 264.08 33.064C264.08 35.632 265.904 37.096 267.68 37.816L270.056 38.824C271.64 39.496 272.72 39.928 272.72 41.248C272.72 42.472 271.76 43.264 269.912 43.264C268.352 43.264 266.648 42.496 265.4 41.32L263.36 43.768C265.088 45.424 267.44 46.336 269.84 46.336ZM284.95 46H291.286C295.174 46 298.15 44.344 298.15 40.768C298.15 38.392 296.734 37.024 294.838 36.568V36.472C296.35 35.92 297.238 34.264 297.238 32.632C297.238 29.32 294.454 28.24 290.806 28.24H284.95V46ZM288.502 35.464V30.976H290.614C292.75 30.976 293.782 31.576 293.782 33.136C293.782 34.576 292.822 35.464 290.566 35.464H288.502ZM288.502 43.264V38.104H290.974C293.422 38.104 294.694 38.848 294.694 40.576C294.694 42.4 293.374 43.264 290.974 43.264H288.502ZM308.342 46.336C313.046 46.336 316.262 42.832 316.262 37.048C316.262 31.288 313.046 27.928 308.342 27.928C303.614 27.928 300.398 31.264 300.398 37.048C300.398 42.832 303.614 46.336 308.342 46.336ZM308.342 43.264C305.678 43.264 304.022 40.84 304.022 37.048C304.022 33.256 305.678 30.976 308.342 30.976C310.982 30.976 312.662 33.256 312.662 37.048C312.662 40.84 310.982 43.264 308.342 43.264ZM326.81 46.336C331.514 46.336 334.73 42.832 334.73 37.048C334.73 31.288 331.514 27.928 326.81 27.928C322.082 27.928 318.866 31.264 318.866 37.048C318.866 42.832 322.082 46.336 326.81 46.336ZM326.81 43.264C324.146 43.264 322.49 40.84 322.49 37.048C322.49 33.256 324.146 30.976 326.81 30.976C329.45 30.976 331.13 33.256 331.13 37.048C331.13 40.84 329.45 43.264 326.81 43.264ZM338.223 46H341.775V41.008L344.103 38.032L348.711 46H352.575L346.191 35.224L351.639 28.24H347.727L341.823 35.944H341.775V28.24H338.223V46ZM359.371 46.336C363.451 46.336 365.875 43.864 365.875 40.96C365.875 38.416 364.459 37.024 362.323 36.136L359.995 35.176C358.483 34.576 357.211 34.096 357.211 32.824C357.211 31.672 358.195 30.976 359.755 30.976C361.219 30.976 362.395 31.504 363.547 32.44L365.323 30.208C363.883 28.744 361.819 27.928 359.755 27.928C356.179 27.928 353.611 30.16 353.611 33.064C353.611 35.632 355.435 37.096 357.211 37.816L359.587 38.824C361.171 39.496 362.251 39.928 362.251 41.248C362.251 42.472 361.291 43.264 359.443 43.264C357.883 43.264 356.179 42.496 354.931 41.32L352.891 43.768C354.619 45.424 356.971 46.336 359.371 46.336Z" fill="#353C49"/>
<path d="M769.94 37.74V39.44H782.62V37.74H769.94ZM767.92 43.74V45.48H784.48V43.74H767.92ZM775.12 38.5V44.36H777.2V38.5H775.12ZM769.94 30.74V38.48H772.02V32.44H782.46V30.74H769.94ZM795.478 35.36V37.06H800.438V35.36H795.478ZM790.818 30.88V33.88C790.818 37.3 789.058 40.82 786.178 42.2L787.498 43.88C790.638 42.26 792.518 38.18 792.518 33.88V30.88H790.818ZM791.238 30.88V33.88C791.238 38.12 793.058 41.98 796.218 43.56L797.478 41.88C794.658 40.58 792.918 37.26 792.918 33.88V30.88H791.238ZM799.398 29.36V47.68H801.478V29.36H799.398ZM816.389 30.5V31.44C816.389 34.58 813.849 37.08 809.349 38.34L810.169 39.98C815.469 38.5 818.589 35.2 818.589 30.5H816.389ZM810.309 30.5V32.18H817.829V30.5H810.309ZM822.249 29.38V39.72H824.349V29.38H822.249ZM818.649 33.92V35.64H822.589V33.92H818.649ZM812.449 40.48V47.44H824.349V40.48H812.449ZM822.289 42.14V45.76H814.509V42.14H822.289ZM831.188 30.46V32.74C831.188 34.82 829.948 37.16 827.488 38.26L828.608 39.9C831.428 38.64 832.828 35.66 832.828 32.74V30.46H831.188ZM831.548 30.46V32.74C831.548 35.62 832.908 38.28 835.648 39.42L836.748 37.82C834.388 36.84 833.208 34.8 833.208 32.74V30.46H831.548ZM841.088 29.4V40.46H843.068V29.4H841.088ZM838.468 34V35.72H841.668V34H838.468ZM837.188 29.7V40.36H839.148V29.7H837.188ZM830.688 41.36V43.06H840.988V47.66H843.068V41.36H830.688Z" fill="#353C49"/>
<path d="M916.46 29.38V47.66H918.46V29.38H916.46ZM913.7 36.64V38.34H917V36.64H913.7ZM912.34 29.74V46.76H914.3V29.74H912.34ZM903.72 31.5V42.06H905.82V31.5H903.72ZM903.72 41.24V43.04H904.92C906.84 43.04 908.94 42.96 911.38 42.5L911.16 40.68C908.82 41.14 906.76 41.24 904.92 41.24H903.72ZM933.378 29.36V47.64H935.478V29.36H933.378ZM934.918 36.6V38.32H938.218V36.6H934.918ZM928.638 31.3V31.66C928.638 36.54 926.218 40.2 921.278 42.72L922.458 44.32C928.438 41.32 930.698 36.62 930.698 31.3H928.638ZM922.198 31.3V33H929.718V31.3H922.198ZM946.769 31.24V32.58C946.769 34.48 946.029 36.78 943.969 37.88L945.069 39.4C947.489 38.1 948.269 35.18 948.269 32.58V31.24H946.769ZM947.289 31.24V32.58C947.289 34.92 947.869 38.14 950.349 39.58L951.269 38.04C949.249 36.74 948.729 34.3 948.729 32.58V31.24H947.289ZM951.949 31.24V32.58C951.949 34.38 951.429 36.76 949.429 38.04L950.349 39.58C952.829 38.18 953.409 35.02 953.409 32.58V31.24H951.949ZM952.429 31.24V32.58C952.429 35.22 953.209 38.1 955.649 39.4L956.729 37.88C954.669 36.8 953.949 34.52 953.949 32.58V31.24H952.429ZM944.629 30.58V32.26H949.949V30.58H944.629ZM950.749 30.58V32.26H955.949V30.58H950.749ZM957.449 29.38V40.06H959.569V29.38H957.449ZM947.249 40.98V47.44H959.569V40.98H947.249ZM957.489 42.64V45.74H949.289V42.64H957.489ZM974.768 29.4V43.08H976.868V29.4H974.768ZM976.248 35.2V36.94H979.448V35.2H976.248ZM962.628 31.48V33.14H973.388V31.48H962.628ZM968.008 33.98C965.388 33.98 963.568 35.38 963.568 37.44C963.568 39.52 965.388 40.9 968.008 40.9C970.608 40.9 972.428 39.52 972.428 37.44C972.428 35.38 970.608 33.98 968.008 33.98ZM968.008 35.6C969.448 35.6 970.428 36.3 970.428 37.44C970.428 38.6 969.448 39.28 968.008 39.28C966.568 39.28 965.588 38.6 965.588 37.44C965.588 36.3 966.568 35.6 968.008 35.6ZM966.967 29.38V32.3H969.048V29.38H966.967ZM965.308 45.6V47.3H977.608V45.6H965.308ZM965.308 42.02V46.32H967.408V42.02H965.308ZM989.058 32.84V33.42C989.058 35.58 987.858 37.64 985.558 38.54L986.538 40.1C989.298 39 990.638 36.36 990.638 33.42V32.84H989.058ZM989.478 32.84V33.42C989.478 36.22 990.818 38.76 993.598 39.78L994.538 38.22C992.258 37.38 991.038 35.44 991.038 33.42V32.84H989.478ZM985.978 31.64V33.3H994.058V31.64H985.978ZM989.058 29.58V32.36H991.038V29.58H989.058ZM998.978 29.4V40.6H1000.96V29.4H998.978ZM996.358 34.12V35.82H999.558V34.12H996.358ZM995.118 29.7V40.5H997.078V29.7H995.118ZM988.578 41.48V43.16H998.878V47.66H1000.96V41.48H988.578Z" fill="#353C49"/>
<path d="M767 56H846" stroke="#4880EE"/>
<path d="M901.993 56H1003" stroke="#4880EE"/>
</svg>
