<svg width="568" height="103" viewBox="0 0 568 103" fill="none" xmlns="http://www.w3.org/2000/svg">
<rect x="496.5" y="61.3164" width="71" height="34.2653" rx="7.5" stroke="#8D94A0"/>
<path d="M509.612 73.487V74.719C509.612 76.581 508.534 78.303 506.518 79.017L507.288 80.179C509.556 79.339 510.816 77.225 510.816 74.719V73.487H509.612ZM509.892 73.487V74.845C509.892 77.113 511.152 79.045 513.322 79.815L514.092 78.667C512.174 78.037 511.082 76.497 511.082 74.845V73.487H509.892ZM515.156 72.815V80.487H516.626V72.815H515.156ZM516.22 75.965V77.183H518.432V75.965H516.22ZM512.51 80.809C509.864 80.809 508.24 81.691 508.24 83.203C508.24 84.715 509.864 85.597 512.51 85.597C515.142 85.597 516.766 84.715 516.766 83.203C516.766 81.691 515.142 80.809 512.51 80.809ZM512.51 81.957C514.288 81.957 515.31 82.391 515.31 83.203C515.31 84.015 514.288 84.449 512.51 84.449C510.732 84.449 509.696 84.015 509.696 83.203C509.696 82.391 510.732 81.957 512.51 81.957ZM524.549 77.267V78.471H526.859V77.267H524.549ZM522.015 73.977V76.287C522.015 78.471 521.133 80.753 519.327 81.845L520.223 82.951C522.169 81.761 523.149 79.059 523.149 76.287V73.977H522.015ZM522.323 73.977V76.231C522.323 78.835 523.177 81.481 525.095 82.671L525.921 81.523C524.213 80.445 523.429 78.289 523.429 76.231V73.977H522.323ZM529.043 72.815V85.611H530.443V72.815H529.043ZM526.439 73.053V84.995H527.811V73.053H526.439ZM537.428 73.599V74.257C537.428 76.455 535.65 78.205 532.5 79.087L533.074 80.235C536.784 79.199 538.968 76.889 538.968 73.599H537.428ZM533.172 73.599V74.775H538.436V73.599H533.172ZM541.53 72.815V80.053H543V72.815H541.53ZM539.01 75.993V77.197H541.768V75.993H539.01ZM534.67 80.585V85.457H543V80.585H534.67ZM541.558 81.747V84.281H536.112V81.747H541.558ZM547.787 73.571V75.167C547.787 76.623 546.919 78.261 545.197 79.031L545.981 80.179C547.955 79.297 548.935 77.211 548.935 75.167V73.571H547.787ZM548.039 73.571V75.167C548.039 77.183 548.991 79.045 550.909 79.843L551.679 78.723C550.027 78.037 549.201 76.609 549.201 75.167V73.571H548.039ZM554.717 72.829V80.571H556.103V72.829H554.717ZM552.883 76.049V77.253H555.123V76.049H552.883ZM551.987 73.039V80.501H553.359V73.039H551.987ZM547.437 81.201V82.391H554.647V85.611H556.103V81.201H547.437Z" fill="#8D94A0"/>
<rect y="52" width="480" height="50" rx="25" fill="#F2F4F6"/>
<path d="M34.6714 85.0942L30.8949 81.3287C32.1134 79.7764 32.7745 77.8595 32.7721 75.886C32.7721 74.1285 32.2509 72.4105 31.2745 70.9492C30.2981 69.4879 28.9103 68.349 27.2866 67.6764C25.6629 67.0039 23.8762 66.8279 22.1525 67.1707C20.4287 67.5136 18.8454 68.3599 17.6027 69.6027C16.3599 70.8454 15.5136 72.4287 15.1707 74.1525C14.8279 75.8762 15.0039 77.6629 15.6764 79.2866C16.349 80.9103 17.4879 82.2981 18.9492 83.2745C20.4105 84.2509 22.1285 84.7721 23.886 84.7721C25.8595 84.7745 27.7764 84.1134 29.3287 82.8949L33.0942 86.6714C33.1974 86.7755 33.3203 86.8582 33.4556 86.9146C33.591 86.971 33.7362 87 33.8828 87C34.0294 87 34.1746 86.971 34.31 86.9146C34.4453 86.8582 34.5682 86.7755 34.6714 86.6714C34.7755 86.5682 34.8582 86.4453 34.9146 86.31C34.971 86.1746 35 86.0294 35 85.8828C35 85.7362 34.971 85.591 34.9146 85.4556C34.8582 85.3203 34.7755 85.1974 34.6714 85.0942ZM17.2215 75.886C17.2215 74.5679 17.6124 73.2794 18.3447 72.1834C19.077 71.0874 20.1178 70.2332 21.3356 69.7288C22.5534 69.2244 23.8934 69.0924 25.1862 69.3496C26.479 69.6067 27.6665 70.2415 28.5986 71.1735C29.5306 72.1056 30.1653 73.2931 30.4225 74.5858C30.6796 75.8786 30.5477 77.2186 30.0432 78.4364C29.5388 79.6542 28.6846 80.6951 27.5886 81.4274C26.4927 82.1597 25.2041 82.5505 23.886 82.5505C22.1185 82.5505 20.4233 81.8484 19.1735 80.5986C17.9237 79.3487 17.2215 77.6536 17.2215 75.886Z" fill="#353C49"/>
<path d="M57.48 72.6V73.352C57.48 75.864 55.448 77.864 51.848 78.872L52.504 80.184C56.744 79 59.24 76.36 59.24 72.6H57.48ZM52.616 72.6V73.944H58.632V72.6H52.616ZM62.168 71.704V79.976H63.848V71.704H62.168ZM59.288 75.336V76.712H62.44V75.336H59.288ZM54.328 80.584V86.152H63.848V80.584H54.328ZM62.2 81.912V84.808H55.976V81.912H62.2ZM69.3188 72.568V74.392C69.3188 76.056 68.3268 77.928 66.3588 78.808L67.2548 80.12C69.5108 79.112 70.6308 76.728 70.6308 74.392V72.568H69.3188ZM69.6068 72.568V74.392C69.6068 76.696 70.6948 78.824 72.8868 79.736L73.7668 78.456C71.8788 77.672 70.9348 76.04 70.9348 74.392V72.568H69.6068ZM77.2388 71.72V80.568H78.8228V71.72H77.2388ZM75.1428 75.4V76.776H77.7028V75.4H75.1428ZM74.1188 71.96V80.488H75.6868V71.96H74.1188ZM68.9188 81.288V82.648H77.1588V86.328H78.8228V81.288H68.9188ZM85.1095 72.776C82.9495 72.776 81.4135 74.776 81.4135 77.928C81.4135 81.08 82.9495 83.096 85.1095 83.096C87.2695 83.096 88.8055 81.08 88.8055 77.928C88.8055 74.776 87.2695 72.776 85.1095 72.776ZM85.1095 74.296C86.3735 74.296 87.2215 75.656 87.2215 77.928C87.2215 80.216 86.3735 81.592 85.1095 81.592C83.8615 81.592 83.0135 80.216 83.0135 77.928C83.0135 75.656 83.8615 74.296 85.1095 74.296ZM91.6375 71.688V86.344H93.3015V71.688H91.6375ZM88.2935 77.144V78.488H92.3575V77.144H88.2935ZM95.8763 78.392V79.64H109.124V78.392H95.8763ZM97.4123 80.616V81.784H105.86V82.792H97.4443V85.4H99.1083V83.896H107.508V80.616H97.4123ZM97.4443 85V86.168H107.956V85H97.4443ZM97.5403 72.056V73.208H105.812V74.184H97.5563V76.68H99.2203V75.272H107.46V72.056H97.5403ZM97.5563 76.312V77.48H107.732V76.312H97.5563ZM124.573 71.704V79.56H126.253V71.704H124.573ZM116.701 80.248V86.152H126.253V80.248H124.589V81.832H118.349V80.248H116.701ZM118.349 83.144H124.589V84.808H118.349V83.144ZM118.365 72.36C116.125 72.36 114.477 73.752 114.477 75.768C114.477 77.768 116.125 79.176 118.365 79.176C120.605 79.176 122.237 77.768 122.237 75.768C122.237 73.752 120.605 72.36 118.365 72.36ZM118.365 73.752C119.677 73.752 120.605 74.552 120.605 75.768C120.605 76.984 119.677 77.784 118.365 77.784C117.053 77.784 116.109 76.984 116.109 75.768C116.109 74.552 117.053 73.752 118.365 73.752ZM129.5 78.824V80.184H130.572C133.452 80.184 134.924 80.136 136.684 79.816L136.508 78.472C134.812 78.776 133.388 78.824 130.572 78.824H129.5ZM129.468 72.568V73.912H134.172V75.64H129.5V79.688H131.164V76.92H135.82V72.568H129.468ZM139.356 71.72V80.712H141.036V71.72H139.356ZM136.732 73.816V75.16H139.692V73.816H136.732ZM136.732 76.872V78.232H139.692V76.872H136.732ZM131.148 81.448V82.792H139.356V86.344H141.036V81.448H131.148ZM153.306 71.704V86.328H154.97V71.704H153.306ZM154.586 77.576V78.968H157.242V77.576H154.586ZM143.562 73.96V75.304H152.138V73.96H143.562ZM147.898 76.36C145.802 76.36 144.266 77.768 144.266 79.768C144.266 81.784 145.802 83.192 147.898 83.192C149.978 83.192 151.514 81.784 151.514 79.768C151.514 77.768 149.978 76.36 147.898 76.36ZM147.898 77.736C149.066 77.736 149.914 78.536 149.914 79.768C149.914 81 149.066 81.816 147.898 81.816C146.714 81.816 145.866 81 145.866 79.768C145.866 78.536 146.714 77.736 147.898 77.736ZM147.034 71.912V74.52H148.714V71.912H147.034ZM164.105 76.792V78.168H166.745V76.792H164.105ZM161.209 73.032V75.672C161.209 78.168 160.201 80.776 158.137 82.024L159.161 83.288C161.385 81.928 162.505 78.84 162.505 75.672V73.032H161.209ZM161.561 73.032V75.608C161.561 78.584 162.537 81.608 164.729 82.968L165.673 81.656C163.721 80.424 162.825 77.96 162.825 75.608V73.032H161.561ZM169.241 71.704V86.328H170.841V71.704H169.241ZM166.265 71.976V85.624H167.833V71.976H166.265ZM176.168 79.192V83.432H177.832V79.192H176.168ZM181.528 79.192V83.432H183.208V79.192H181.528ZM173.08 83.16V84.536H186.328V83.16H173.08ZM179.672 72.536C176.552 72.536 174.296 74.04 174.296 76.376C174.296 78.696 176.552 80.2 179.672 80.2C182.792 80.2 185.048 78.696 185.048 76.376C185.048 74.04 182.792 72.536 179.672 72.536ZM179.672 73.848C181.88 73.848 183.416 74.824 183.416 76.376C183.416 77.912 181.88 78.888 179.672 78.888C177.464 78.888 175.928 77.912 175.928 76.376C175.928 74.824 177.464 73.848 179.672 73.848Z" fill="#8D94A0"/>
<path d="M3.036 12.672V15.004H17.358V12.672H3.036ZM0.902 19.272V21.67H19.338V19.272H0.902ZM8.624 13.728V20.042H11.55V13.728H8.624ZM3.036 4.972V13.684H5.962V7.326H17.204V4.972H3.036ZM31.3923 9.944V12.298H36.7603V9.944H31.3923ZM25.8483 5.148V8.096C25.8483 11.968 24.3083 15.906 20.8323 17.512L22.6583 19.866C26.4863 17.952 28.2243 13.222 28.2243 8.096V5.148H25.8483ZM26.4643 5.148V8.096C26.4643 13.178 28.0703 17.666 31.8983 19.514L33.6363 17.182C30.2703 15.686 28.7963 11.968 28.7963 8.096V5.148H26.4643ZM35.3083 3.564V24.002H38.2123V3.564H35.3083ZM53.7769 4.752V6.138C53.7769 9.262 51.2909 11.858 46.4289 13.178L47.5729 15.444C53.5349 13.816 56.8349 10.12 56.8349 4.752H53.7769ZM47.5509 4.752V7.062H55.8009V4.752H47.5509ZM60.4649 3.586V14.982H63.3909V3.586H60.4649ZM56.9449 8.404V10.78H60.8829V8.404H56.9449ZM49.9709 15.796V23.738H63.3909V15.796H49.9709ZM60.5089 18.106V21.428H52.8529V18.106H60.5089ZM70.2532 4.752V7.084C70.2532 9.394 69.1312 11.924 66.2932 13.178L67.8332 15.444C71.1552 14.014 72.5412 10.56 72.5412 7.084V4.752H70.2532ZM70.7812 4.752V7.084C70.7812 10.472 72.1232 13.596 75.2912 14.894L76.8312 12.672C74.1472 11.55 73.0692 9.35 73.0692 7.084V4.752H70.7812ZM81.1652 3.608V15.95H83.9372V3.608H81.1652ZM78.7232 8.536V10.912H81.9572V8.536H78.7232ZM76.8532 3.916V15.84H79.5812V3.916H76.8532ZM69.9452 16.83V19.162H81.0332V23.958H83.9372V16.83H69.9452Z" fill="#1A1E27"/>
</svg>
