<svg width="164" height="24" viewBox="0 0 164 24" fill="none" xmlns="http://www.w3.org/2000/svg">
<path d="M2.352 12.392V13.752H12.496V12.392H2.352ZM0.736 17.192V18.584H13.984V17.192H0.736ZM6.496 13V17.688H8.16V13H6.496ZM2.352 6.792V12.984H4.016V8.152H12.368V6.792H2.352ZM22.7828 10.488V11.848H26.7508V10.488H22.7828ZM19.0548 6.904V9.304C19.0548 12.04 17.6468 14.856 15.3428 15.96L16.3988 17.304C18.9108 16.008 20.4148 12.744 20.4148 9.304V6.904H19.0548ZM19.3908 6.904V9.304C19.3908 12.696 20.8468 15.784 23.3748 17.048L24.3828 15.704C22.1268 14.664 20.7348 12.008 20.7348 9.304V6.904H19.3908ZM25.9188 5.688V20.344H27.5828V5.688H25.9188ZM39.5113 6.6V7.352C39.5113 9.864 37.4793 11.864 33.8793 12.872L34.5353 14.184C38.7753 13 41.2713 10.36 41.2713 6.6H39.5113ZM34.6473 6.6V7.944H40.6633V6.6H34.6473ZM44.1993 5.704V13.976H45.8793V5.704H44.1993ZM41.3193 9.336V10.712H44.4713V9.336H41.3193ZM36.3593 14.584V20.152H45.8793V14.584H36.3593ZM44.2313 15.912V18.808H38.0073V15.912H44.2313ZM51.35 6.568V8.392C51.35 10.056 50.358 11.928 48.39 12.808L49.286 14.12C51.542 13.112 52.662 10.728 52.662 8.392V6.568H51.35ZM51.638 6.568V8.392C51.638 10.696 52.726 12.824 54.918 13.736L55.798 12.456C53.91 11.672 52.966 10.04 52.966 8.392V6.568H51.638ZM59.27 5.72V14.568H60.854V5.72H59.27ZM57.174 9.4V10.776H59.734V9.4H57.174ZM56.15 5.96V14.488H57.718V5.96H56.15ZM50.95 15.288V16.648H59.19V20.328H60.854V15.288H50.95ZM77.2305 5.704V13.112H78.9105V5.704H77.2305ZM72.4945 6.344V7.224C72.4945 9.496 70.7185 11.272 66.9905 12.088L67.5665 13.448C71.9025 12.44 74.3185 10.12 74.3185 6.344H72.4945ZM67.7905 6.344V7.704H73.2145V6.344H67.7905ZM73.7745 7.688V8.984H77.4705V7.688H73.7745ZM73.6625 10.504V11.784H77.3905V10.504H73.6625ZM69.3905 13.72V15.048H77.2305V16.248H69.4225V19.608H71.0865V17.512H78.9105V13.72H69.3905ZM69.4225 18.856V20.184H79.3105V18.856H69.4225ZM82.1413 7.24V8.584H88.6213V7.24H82.1413ZM84.2533 11.416V16.376H85.9013V11.416H84.2533ZM87.9333 7.24V8.2C87.9333 9.48 87.9333 11.272 87.5333 13.784L89.1813 13.928C89.5972 11.336 89.5972 9.496 89.5972 8.2V7.24H87.9333ZM91.1653 5.704V20.328H92.8293V5.704H91.1653ZM92.3653 11.704V13.112H95.0053V11.704H92.3653ZM81.5493 17.24C84.1093 17.24 87.4693 17.176 90.4613 16.68L90.3813 15.448C87.4533 15.816 83.9813 15.864 81.3733 15.864L81.5493 17.24Z" fill="#353C49"/>
<path d="M112.72 13.16V14.504H125.936V13.16H112.72ZM118.496 11.56V13.784H120.16V11.56H118.496ZM118.496 5.704V7.784H120.16V5.704H118.496ZM118.4 7.896V8.152C118.4 9.576 116.528 10.744 113.392 10.968L113.904 12.248C117.44 11.944 119.872 10.472 119.872 8.152V7.896H118.4ZM118.784 7.896V8.152C118.784 10.472 121.2 11.944 124.752 12.248L125.248 10.968C122.128 10.744 120.256 9.576 120.256 8.152V7.896H118.784ZM114.032 7.08V8.392H124.624V7.08H114.032ZM119.312 15.416C116.144 15.416 114.272 16.28 114.272 17.864C114.272 19.448 116.144 20.312 119.312 20.312C122.48 20.312 124.352 19.448 124.352 17.864C124.352 16.28 122.48 15.416 119.312 15.416ZM119.312 16.664C121.472 16.664 122.656 17.064 122.656 17.864C122.656 18.648 121.472 19.064 119.312 19.064C117.152 19.064 115.968 18.648 115.968 17.864C115.968 17.064 117.152 16.664 119.312 16.664ZM159.731 5.704V16.456H161.411V5.704H159.731ZM156.851 10.104V11.48H160.003V10.104H156.851ZM155.171 6.824V7.544C155.171 10.248 152.979 12.424 149.491 13.56L150.195 14.904C154.371 13.544 156.931 10.664 156.931 6.824H155.171ZM150.227 6.824V8.184H156.259V6.824H150.227ZM152.019 18.68V20.04H161.779V18.68H152.019ZM152.019 15.384V19.416H153.699V15.384H152.019Z" fill="#353C49"/>
<path d="M131.001 19H138.617V17.432H135.673C135.097 17.432 134.345 17.496 133.737 17.56C136.233 15.16 138.057 12.808 138.057 10.552C138.057 8.408 136.665 7.016 134.505 7.016C132.969 7.016 131.929 7.672 130.905 8.776L131.961 9.784C132.585 9.064 133.353 8.488 134.281 8.488C135.593 8.488 136.265 9.368 136.265 10.632C136.265 12.568 134.489 14.856 131.001 17.928V19ZM140.798 19H147.534V17.48H145.23V7.224H143.838C143.15 7.64 142.382 7.928 141.262 8.12V9.288H143.39V17.48H140.798V19Z" fill="#4880EE"/>
</svg>
